<mxfile host="app.diagrams.net" modified="2024-02-09T15:54:37.354Z" agent="Mozilla/5.0 (X11; Linux x86_64) AppleWebKit/537.36 (KHTML, like Gecko) Chrome/121.0.0.0 Safari/537.36" etag="m3zKWgnE_vq2tSSF-5NL" version="23.1.2" type="device" pages="4">
  <diagram name="diagrammes d&#39;activitÃ© USER" id="e7e014a7-5840-1c2e-5031-d8a46d1fe8dd">
    <mxGraphModel dx="1350" dy="779" grid="1" gridSize="10" guides="1" tooltips="1" connect="1" arrows="1" fold="1" page="1" pageScale="1" pageWidth="1169" pageHeight="826" background="none" math="0" shadow="0">
      <root>
        <mxCell id="0" />
        <mxCell id="1" parent="0" />
        <mxCell id="3" value="Market" style="swimlane;whiteSpace=wrap" parent="1" vertex="1">
          <mxGeometry x="550" y="60" width="610" height="530" as="geometry" />
        </mxCell>
        <mxCell id="oegt0IcWYxgqxn5mdALV-60" style="edgeStyle=orthogonalEdgeStyle;rounded=0;orthogonalLoop=1;jettySize=auto;html=1;exitX=0.5;exitY=1;exitDx=0;exitDy=0;entryX=0.5;entryY=0;entryDx=0;entryDy=0;" parent="3" target="oegt0IcWYxgqxn5mdALV-42" edge="1">
          <mxGeometry relative="1" as="geometry">
            <mxPoint x="190.5" y="122" as="sourcePoint" />
          </mxGeometry>
        </mxCell>
        <mxCell id="13" value="" style="ellipse;shape=startState;fillColor=#000000;strokeColor=#ff0000;" parent="3" vertex="1">
          <mxGeometry x="175.5" y="42" width="30" height="30" as="geometry" />
        </mxCell>
        <mxCell id="kBtgNoDVtLvur4RUkV4p-25" style="edgeStyle=orthogonalEdgeStyle;rounded=0;orthogonalLoop=1;jettySize=auto;html=1;exitX=0.5;exitY=1;exitDx=0;exitDy=0;entryX=0;entryY=0.5;entryDx=0;entryDy=0;" parent="3" source="oegt0IcWYxgqxn5mdALV-41" target="kBtgNoDVtLvur4RUkV4p-13" edge="1">
          <mxGeometry relative="1" as="geometry">
            <Array as="points">
              <mxPoint x="115" y="210" />
              <mxPoint x="66" y="210" />
              <mxPoint x="66" y="122" />
            </Array>
          </mxGeometry>
        </mxCell>
        <mxCell id="oegt0IcWYxgqxn5mdALV-41" value="Info" style="rounded=1;whiteSpace=wrap;html=1;fillColor=#00FFFF;" parent="3" vertex="1">
          <mxGeometry x="85.5" y="162" width="59.5" height="28" as="geometry" />
        </mxCell>
        <mxCell id="oegt0IcWYxgqxn5mdALV-57" style="edgeStyle=orthogonalEdgeStyle;rounded=0;orthogonalLoop=1;jettySize=auto;html=1;exitX=0.5;exitY=1;exitDx=0;exitDy=0;entryX=0.5;entryY=0;entryDx=0;entryDy=0;" parent="3" source="oegt0IcWYxgqxn5mdALV-42" target="oegt0IcWYxgqxn5mdALV-54" edge="1">
          <mxGeometry relative="1" as="geometry" />
        </mxCell>
        <mxCell id="oegt0IcWYxgqxn5mdALV-42" value="Buy" style="rounded=1;whiteSpace=wrap;html=1;fillColor=#00CC00;" parent="3" vertex="1">
          <mxGeometry x="160.75" y="162" width="59.5" height="28" as="geometry" />
        </mxCell>
        <mxCell id="oegt0IcWYxgqxn5mdALV-59" style="edgeStyle=orthogonalEdgeStyle;rounded=0;orthogonalLoop=1;jettySize=auto;html=1;exitX=0.5;exitY=1;exitDx=0;exitDy=0;entryX=0.5;entryY=0;entryDx=0;entryDy=0;" parent="3" source="oegt0IcWYxgqxn5mdALV-44" target="oegt0IcWYxgqxn5mdALV-49" edge="1">
          <mxGeometry relative="1" as="geometry" />
        </mxCell>
        <mxCell id="oegt0IcWYxgqxn5mdALV-78" value="YES" style="edgeLabel;html=1;align=center;verticalAlign=middle;resizable=0;points=[];" parent="oegt0IcWYxgqxn5mdALV-59" vertex="1" connectable="0">
          <mxGeometry x="-0.4118" y="4" relative="1" as="geometry">
            <mxPoint x="9" as="offset" />
          </mxGeometry>
        </mxCell>
        <mxCell id="6RPuYS33KqUH_g7sE7AS-15" style="edgeStyle=orthogonalEdgeStyle;rounded=0;orthogonalLoop=1;jettySize=auto;html=1;exitX=0;exitY=0.5;exitDx=0;exitDy=0;entryX=0.25;entryY=0;entryDx=0;entryDy=0;" parent="3" source="oegt0IcWYxgqxn5mdALV-44" target="kBtgNoDVtLvur4RUkV4p-13" edge="1">
          <mxGeometry relative="1" as="geometry">
            <Array as="points">
              <mxPoint x="50" y="392" />
              <mxPoint x="50" y="90" />
              <mxPoint x="163" y="90" />
            </Array>
          </mxGeometry>
        </mxCell>
        <mxCell id="6RPuYS33KqUH_g7sE7AS-16" value="NO" style="edgeLabel;html=1;align=center;verticalAlign=middle;resizable=0;points=[];" parent="6RPuYS33KqUH_g7sE7AS-15" vertex="1" connectable="0">
          <mxGeometry x="-0.8899" y="-4" relative="1" as="geometry">
            <mxPoint x="8" y="-5" as="offset" />
          </mxGeometry>
        </mxCell>
        <mxCell id="oegt0IcWYxgqxn5mdALV-44" value="Balance&lt;br&gt;ok?" style="rhombus;whiteSpace=wrap;html=1;" parent="3" vertex="1">
          <mxGeometry x="150.5" y="352" width="80" height="80" as="geometry" />
        </mxCell>
        <mxCell id="oegt0IcWYxgqxn5mdALV-49" value="Bought" style="rounded=1;whiteSpace=wrap;html=1;" parent="3" vertex="1">
          <mxGeometry x="160.75" y="466" width="59.5" height="28" as="geometry" />
        </mxCell>
        <mxCell id="oegt0IcWYxgqxn5mdALV-58" style="edgeStyle=orthogonalEdgeStyle;rounded=0;orthogonalLoop=1;jettySize=auto;html=1;exitX=0.5;exitY=1;exitDx=0;exitDy=0;entryX=0.5;entryY=0;entryDx=0;entryDy=0;" parent="3" source="oegt0IcWYxgqxn5mdALV-54" target="oegt0IcWYxgqxn5mdALV-44" edge="1">
          <mxGeometry relative="1" as="geometry" />
        </mxCell>
        <mxCell id="oegt0IcWYxgqxn5mdALV-77" value="BUY" style="edgeLabel;html=1;align=center;verticalAlign=middle;resizable=0;points=[];" parent="oegt0IcWYxgqxn5mdALV-58" vertex="1" connectable="0">
          <mxGeometry x="-0.4" y="3" relative="1" as="geometry">
            <mxPoint x="10" as="offset" />
          </mxGeometry>
        </mxCell>
        <mxCell id="oegt0IcWYxgqxn5mdALV-54" value="Purchase&lt;br&gt;Item" style="rhombus;whiteSpace=wrap;html=1;" parent="3" vertex="1">
          <mxGeometry x="150.5" y="232" width="80" height="80" as="geometry" />
        </mxCell>
        <mxCell id="oegt0IcWYxgqxn5mdALV-63" value="" style="edgeStyle=orthogonalEdgeStyle;rounded=0;orthogonalLoop=1;jettySize=auto;html=1;exitX=0.5;exitY=1;exitDx=0;exitDy=0;entryX=0.5;entryY=0;entryDx=0;entryDy=0;" parent="3" source="13" edge="1">
          <mxGeometry relative="1" as="geometry">
            <mxPoint x="635.5" y="200" as="sourcePoint" />
            <mxPoint x="190.5" y="112" as="targetPoint" />
          </mxGeometry>
        </mxCell>
        <mxCell id="kBtgNoDVtLvur4RUkV4p-23" style="edgeStyle=orthogonalEdgeStyle;rounded=0;orthogonalLoop=1;jettySize=auto;html=1;exitX=0.25;exitY=1;exitDx=0;exitDy=0;entryX=0.5;entryY=0;entryDx=0;entryDy=0;" parent="3" source="kBtgNoDVtLvur4RUkV4p-13" target="oegt0IcWYxgqxn5mdALV-41" edge="1">
          <mxGeometry relative="1" as="geometry">
            <Array as="points">
              <mxPoint x="163" y="142" />
              <mxPoint x="116" y="142" />
            </Array>
          </mxGeometry>
        </mxCell>
        <mxCell id="kBtgNoDVtLvur4RUkV4p-13" value="&lt;font color=&quot;#ffffff&quot;&gt;Market&lt;/font&gt;" style="rounded=0;whiteSpace=wrap;html=1;fillColor=#000000;fontStyle=1" parent="3" vertex="1">
          <mxGeometry x="135.5" y="112" width="110" height="20" as="geometry" />
        </mxCell>
        <mxCell id="kBtgNoDVtLvur4RUkV4p-21" style="edgeStyle=orthogonalEdgeStyle;rounded=0;orthogonalLoop=1;jettySize=auto;html=1;exitX=1;exitY=0.5;exitDx=0;exitDy=0;entryX=0.891;entryY=1.05;entryDx=0;entryDy=0;entryPerimeter=0;" parent="3" source="oegt0IcWYxgqxn5mdALV-54" target="kBtgNoDVtLvur4RUkV4p-13" edge="1">
          <mxGeometry relative="1" as="geometry">
            <Array as="points">
              <mxPoint x="306" y="272" />
              <mxPoint x="306" y="232" />
              <mxPoint x="234" y="232" />
            </Array>
          </mxGeometry>
        </mxCell>
        <mxCell id="kBtgNoDVtLvur4RUkV4p-24" value="CLOSE" style="edgeLabel;html=1;align=center;verticalAlign=middle;resizable=0;points=[];" parent="kBtgNoDVtLvur4RUkV4p-21" vertex="1" connectable="0">
          <mxGeometry x="-0.8606" y="1" relative="1" as="geometry">
            <mxPoint x="6" y="-8" as="offset" />
          </mxGeometry>
        </mxCell>
        <mxCell id="oegt0IcWYxgqxn5mdALV-43" value="Sell" style="rounded=1;whiteSpace=wrap;html=1;strokeColor=#FF3333;strokeWidth=3;gradientColor=none;fontColor=#FF3333;fontStyle=1" parent="3" vertex="1">
          <mxGeometry x="433.25" y="162" width="59.5" height="28" as="geometry" />
        </mxCell>
        <mxCell id="oegt0IcWYxgqxn5mdALV-81" style="edgeStyle=orthogonalEdgeStyle;rounded=0;orthogonalLoop=1;jettySize=auto;html=1;exitX=1;exitY=0.5;exitDx=0;exitDy=0;entryX=0;entryY=0.5;entryDx=0;entryDy=0;dashed=1;" parent="3" source="oegt0IcWYxgqxn5mdALV-49" target="oegt0IcWYxgqxn5mdALV-43" edge="1">
          <mxGeometry relative="1" as="geometry" />
        </mxCell>
        <mxCell id="oegt0IcWYxgqxn5mdALV-82" value="DEPENDENCE" style="edgeLabel;html=1;align=center;verticalAlign=middle;resizable=0;points=[];" parent="oegt0IcWYxgqxn5mdALV-81" vertex="1" connectable="0">
          <mxGeometry x="-0.851" relative="1" as="geometry">
            <mxPoint x="3" y="-9" as="offset" />
          </mxGeometry>
        </mxCell>
        <mxCell id="oegt0IcWYxgqxn5mdALV-48" value="Sell&lt;br&gt;Item" style="rhombus;whiteSpace=wrap;html=1;" parent="3" vertex="1">
          <mxGeometry x="423" y="220" width="80" height="80" as="geometry" />
        </mxCell>
        <mxCell id="kBtgNoDVtLvur4RUkV4p-17" style="edgeStyle=orthogonalEdgeStyle;rounded=0;orthogonalLoop=1;jettySize=auto;html=1;exitX=1;exitY=0.5;exitDx=0;exitDy=0;entryX=0.75;entryY=0;entryDx=0;entryDy=0;" parent="3" source="oegt0IcWYxgqxn5mdALV-48" target="kBtgNoDVtLvur4RUkV4p-13" edge="1">
          <mxGeometry relative="1" as="geometry">
            <Array as="points">
              <mxPoint x="563" y="260" />
              <mxPoint x="563" y="92" />
              <mxPoint x="218" y="92" />
            </Array>
          </mxGeometry>
        </mxCell>
        <mxCell id="6RPuYS33KqUH_g7sE7AS-23" value="CLOSE" style="edgeLabel;html=1;align=center;verticalAlign=middle;resizable=0;points=[];" parent="kBtgNoDVtLvur4RUkV4p-17" vertex="1" connectable="0">
          <mxGeometry x="-0.9089" y="-4" relative="1" as="geometry">
            <mxPoint x="-2" y="-12" as="offset" />
          </mxGeometry>
        </mxCell>
        <mxCell id="oegt0IcWYxgqxn5mdALV-50" value="Sold" style="rounded=1;whiteSpace=wrap;html=1;" parent="3" vertex="1">
          <mxGeometry x="433.25" y="466" width="59.5" height="28" as="geometry" />
        </mxCell>
        <mxCell id="oegt0IcWYxgqxn5mdALV-69" style="edgeStyle=orthogonalEdgeStyle;rounded=0;orthogonalLoop=1;jettySize=auto;html=1;exitX=0.5;exitY=1;exitDx=0;exitDy=0;entryX=0.5;entryY=0;entryDx=0;entryDy=0;" parent="3" source="oegt0IcWYxgqxn5mdALV-43" target="oegt0IcWYxgqxn5mdALV-48" edge="1">
          <mxGeometry relative="1" as="geometry" />
        </mxCell>
        <mxCell id="oegt0IcWYxgqxn5mdALV-71" style="edgeStyle=orthogonalEdgeStyle;rounded=0;orthogonalLoop=1;jettySize=auto;html=1;exitX=0.5;exitY=1;exitDx=0;exitDy=0;entryX=0.5;entryY=0;entryDx=0;entryDy=0;" parent="3" source="oegt0IcWYxgqxn5mdALV-48" target="oegt0IcWYxgqxn5mdALV-50" edge="1">
          <mxGeometry relative="1" as="geometry" />
        </mxCell>
        <mxCell id="6RPuYS33KqUH_g7sE7AS-22" value="SELL" style="edgeLabel;html=1;align=center;verticalAlign=middle;resizable=0;points=[];" parent="oegt0IcWYxgqxn5mdALV-71" vertex="1" connectable="0">
          <mxGeometry x="-0.5714" y="4" relative="1" as="geometry">
            <mxPoint x="13" y="-16" as="offset" />
          </mxGeometry>
        </mxCell>
        <mxCell id="rlzmkUqog66Be24Si1O2-13" style="edgeStyle=orthogonalEdgeStyle;rounded=0;orthogonalLoop=1;jettySize=auto;html=1;exitX=1;exitY=0.5;exitDx=0;exitDy=0;entryX=0.677;entryY=-0.05;entryDx=0;entryDy=0;entryPerimeter=0;" parent="3" source="oegt0IcWYxgqxn5mdALV-50" target="kBtgNoDVtLvur4RUkV4p-13" edge="1">
          <mxGeometry relative="1" as="geometry">
            <Array as="points">
              <mxPoint x="583" y="480" />
              <mxPoint x="583" y="80" />
              <mxPoint x="210" y="80" />
            </Array>
          </mxGeometry>
        </mxCell>
        <mxCell id="6RPuYS33KqUH_g7sE7AS-14" style="edgeStyle=orthogonalEdgeStyle;rounded=0;orthogonalLoop=1;jettySize=auto;html=1;exitX=0;exitY=0.5;exitDx=0;exitDy=0;entryX=0.395;entryY=0;entryDx=0;entryDy=0;entryPerimeter=0;" parent="3" source="oegt0IcWYxgqxn5mdALV-49" target="kBtgNoDVtLvur4RUkV4p-13" edge="1">
          <mxGeometry relative="1" as="geometry">
            <Array as="points">
              <mxPoint x="20" y="480" />
              <mxPoint x="20" y="80" />
              <mxPoint x="179" y="80" />
            </Array>
          </mxGeometry>
        </mxCell>
        <mxCell id="6RPuYS33KqUH_g7sE7AS-13" value="Login" style="swimlane;whiteSpace=wrap;html=1;" parent="1" vertex="1">
          <mxGeometry x="280" y="60" width="270" height="530" as="geometry" />
        </mxCell>
        <mxCell id="6RPuYS33KqUH_g7sE7AS-31" style="edgeStyle=orthogonalEdgeStyle;rounded=0;orthogonalLoop=1;jettySize=auto;html=1;exitX=0.5;exitY=1;exitDx=0;exitDy=0;entryX=0.5;entryY=0;entryDx=0;entryDy=0;" parent="6RPuYS33KqUH_g7sE7AS-13" source="6RPuYS33KqUH_g7sE7AS-20" target="6RPuYS33KqUH_g7sE7AS-24" edge="1">
          <mxGeometry relative="1" as="geometry" />
        </mxCell>
        <mxCell id="6RPuYS33KqUH_g7sE7AS-20" value="" style="ellipse;shape=startState;fillColor=#000000;strokeColor=#ff0000;" parent="6RPuYS33KqUH_g7sE7AS-13" vertex="1">
          <mxGeometry x="130" y="42" width="30" height="30" as="geometry" />
        </mxCell>
        <mxCell id="6RPuYS33KqUH_g7sE7AS-27" style="edgeStyle=orthogonalEdgeStyle;rounded=0;orthogonalLoop=1;jettySize=auto;html=1;exitX=0.5;exitY=1;exitDx=0;exitDy=0;entryX=0.5;entryY=0;entryDx=0;entryDy=0;" parent="6RPuYS33KqUH_g7sE7AS-13" source="6RPuYS33KqUH_g7sE7AS-24" target="6RPuYS33KqUH_g7sE7AS-25" edge="1">
          <mxGeometry relative="1" as="geometry" />
        </mxCell>
        <mxCell id="6RPuYS33KqUH_g7sE7AS-24" value="Input&lt;br&gt;credentials" style="shape=parallelogram;perimeter=parallelogramPerimeter;whiteSpace=wrap;html=1;fixedSize=1;" parent="6RPuYS33KqUH_g7sE7AS-13" vertex="1">
          <mxGeometry x="85" y="102" width="120" height="60" as="geometry" />
        </mxCell>
        <mxCell id="6RPuYS33KqUH_g7sE7AS-26" style="edgeStyle=orthogonalEdgeStyle;rounded=0;orthogonalLoop=1;jettySize=auto;html=1;exitX=0;exitY=0.5;exitDx=0;exitDy=0;entryX=0;entryY=0.5;entryDx=0;entryDy=0;" parent="6RPuYS33KqUH_g7sE7AS-13" source="6RPuYS33KqUH_g7sE7AS-25" target="6RPuYS33KqUH_g7sE7AS-24" edge="1">
          <mxGeometry relative="1" as="geometry">
            <Array as="points">
              <mxPoint x="20" y="240" />
              <mxPoint x="20" y="132" />
            </Array>
          </mxGeometry>
        </mxCell>
        <mxCell id="6RPuYS33KqUH_g7sE7AS-30" value="NO" style="edgeLabel;html=1;align=center;verticalAlign=middle;resizable=0;points=[];" parent="6RPuYS33KqUH_g7sE7AS-26" vertex="1" connectable="0">
          <mxGeometry x="-0.863" relative="1" as="geometry">
            <mxPoint x="1" y="-9" as="offset" />
          </mxGeometry>
        </mxCell>
        <mxCell id="6RPuYS33KqUH_g7sE7AS-25" value="Credentials&lt;br&gt;are&lt;br&gt;valid?" style="rhombus;whiteSpace=wrap;html=1;" parent="6RPuYS33KqUH_g7sE7AS-13" vertex="1">
          <mxGeometry x="92.5" y="190" width="105" height="100" as="geometry" />
        </mxCell>
        <mxCell id="6RPuYS33KqUH_g7sE7AS-28" style="edgeStyle=orthogonalEdgeStyle;rounded=0;orthogonalLoop=1;jettySize=auto;html=1;exitX=0.5;exitY=1;exitDx=0;exitDy=0;" parent="1" source="6RPuYS33KqUH_g7sE7AS-25" edge="1">
          <mxGeometry relative="1" as="geometry">
            <mxPoint x="730" y="117" as="targetPoint" />
            <Array as="points">
              <mxPoint x="425" y="400" />
              <mxPoint x="510" y="400" />
              <mxPoint x="510" y="117" />
            </Array>
          </mxGeometry>
        </mxCell>
        <mxCell id="6RPuYS33KqUH_g7sE7AS-29" value="YES" style="edgeLabel;html=1;align=center;verticalAlign=middle;resizable=0;points=[];" parent="6RPuYS33KqUH_g7sE7AS-28" vertex="1" connectable="0">
          <mxGeometry x="-0.9644" y="-2" relative="1" as="geometry">
            <mxPoint x="17" y="10" as="offset" />
          </mxGeometry>
        </mxCell>
        <mxCell id="0X-LuTJNydzIZmmGJDT4-13" value="Registration" style="swimlane;whiteSpace=wrap;html=1;" parent="1" vertex="1">
          <mxGeometry x="10" y="60" width="270" height="530" as="geometry" />
        </mxCell>
        <mxCell id="0X-LuTJNydzIZmmGJDT4-14" style="edgeStyle=orthogonalEdgeStyle;rounded=0;orthogonalLoop=1;jettySize=auto;html=1;exitX=0.5;exitY=1;exitDx=0;exitDy=0;entryX=0.5;entryY=0;entryDx=0;entryDy=0;" parent="0X-LuTJNydzIZmmGJDT4-13" source="0X-LuTJNydzIZmmGJDT4-15" target="0X-LuTJNydzIZmmGJDT4-17" edge="1">
          <mxGeometry relative="1" as="geometry" />
        </mxCell>
        <mxCell id="0X-LuTJNydzIZmmGJDT4-15" value="" style="ellipse;shape=startState;fillColor=#000000;strokeColor=#ff0000;" parent="0X-LuTJNydzIZmmGJDT4-13" vertex="1">
          <mxGeometry x="130" y="42" width="30" height="30" as="geometry" />
        </mxCell>
        <mxCell id="0X-LuTJNydzIZmmGJDT4-16" style="edgeStyle=orthogonalEdgeStyle;rounded=0;orthogonalLoop=1;jettySize=auto;html=1;exitX=0.5;exitY=1;exitDx=0;exitDy=0;entryX=0.5;entryY=0;entryDx=0;entryDy=0;" parent="0X-LuTJNydzIZmmGJDT4-13" source="0X-LuTJNydzIZmmGJDT4-17" target="0X-LuTJNydzIZmmGJDT4-20" edge="1">
          <mxGeometry relative="1" as="geometry" />
        </mxCell>
        <mxCell id="0X-LuTJNydzIZmmGJDT4-17" value="Input&lt;br&gt;credentials" style="shape=parallelogram;perimeter=parallelogramPerimeter;whiteSpace=wrap;html=1;fixedSize=1;" parent="0X-LuTJNydzIZmmGJDT4-13" vertex="1">
          <mxGeometry x="85" y="102" width="120" height="60" as="geometry" />
        </mxCell>
        <mxCell id="0X-LuTJNydzIZmmGJDT4-18" style="edgeStyle=orthogonalEdgeStyle;rounded=0;orthogonalLoop=1;jettySize=auto;html=1;exitX=0;exitY=0.5;exitDx=0;exitDy=0;entryX=0;entryY=0.5;entryDx=0;entryDy=0;" parent="0X-LuTJNydzIZmmGJDT4-13" source="0X-LuTJNydzIZmmGJDT4-20" target="0X-LuTJNydzIZmmGJDT4-17" edge="1">
          <mxGeometry relative="1" as="geometry">
            <Array as="points">
              <mxPoint x="20" y="240" />
              <mxPoint x="20" y="132" />
            </Array>
          </mxGeometry>
        </mxCell>
        <mxCell id="0X-LuTJNydzIZmmGJDT4-19" value="NO" style="edgeLabel;html=1;align=center;verticalAlign=middle;resizable=0;points=[];" parent="0X-LuTJNydzIZmmGJDT4-18" vertex="1" connectable="0">
          <mxGeometry x="-0.863" relative="1" as="geometry">
            <mxPoint x="1" y="-9" as="offset" />
          </mxGeometry>
        </mxCell>
        <mxCell id="0X-LuTJNydzIZmmGJDT4-20" value="Credentials&lt;br&gt;are&lt;br&gt;valid?" style="rhombus;whiteSpace=wrap;html=1;" parent="0X-LuTJNydzIZmmGJDT4-13" vertex="1">
          <mxGeometry x="92.5" y="190" width="105" height="100" as="geometry" />
        </mxCell>
        <mxCell id="0X-LuTJNydzIZmmGJDT4-21" style="edgeStyle=orthogonalEdgeStyle;rounded=0;orthogonalLoop=1;jettySize=auto;html=1;exitX=0.5;exitY=1;exitDx=0;exitDy=0;entryX=0.502;entryY=0.094;entryDx=0;entryDy=0;entryPerimeter=0;" parent="1" source="0X-LuTJNydzIZmmGJDT4-20" target="13" edge="1">
          <mxGeometry relative="1" as="geometry">
            <mxPoint x="741" y="100" as="targetPoint" />
            <Array as="points">
              <mxPoint x="155" y="400" />
              <mxPoint x="250" y="400" />
              <mxPoint x="250" y="90" />
              <mxPoint x="741" y="90" />
            </Array>
          </mxGeometry>
        </mxCell>
        <mxCell id="0X-LuTJNydzIZmmGJDT4-22" value="YES" style="edgeLabel;html=1;align=center;verticalAlign=middle;resizable=0;points=[];" parent="0X-LuTJNydzIZmmGJDT4-21" vertex="1" connectable="0">
          <mxGeometry x="-0.9556" y="4" relative="1" as="geometry">
            <mxPoint x="11" y="1" as="offset" />
          </mxGeometry>
        </mxCell>
      </root>
    </mxGraphModel>
  </diagram>
  <diagram name="diagrammes d&#39;activitÃ© ADMIN" id="CGkvTCH6idOabSqA6w5b">
    <mxGraphModel dx="1350" dy="779" grid="1" gridSize="10" guides="1" tooltips="1" connect="1" arrows="1" fold="1" page="1" pageScale="1" pageWidth="1169" pageHeight="826" background="none" math="0" shadow="0">
      <root>
        <mxCell id="JNcYGzSb4ig69omvqPZq-0" />
        <mxCell id="JNcYGzSb4ig69omvqPZq-1" parent="JNcYGzSb4ig69omvqPZq-0" />
        <mxCell id="JNcYGzSb4ig69omvqPZq-2" value="Market" style="swimlane;whiteSpace=wrap" vertex="1" parent="JNcYGzSb4ig69omvqPZq-1">
          <mxGeometry x="290" y="60" width="610" height="530" as="geometry" />
        </mxCell>
        <mxCell id="JNcYGzSb4ig69omvqPZq-3" style="edgeStyle=orthogonalEdgeStyle;rounded=0;orthogonalLoop=1;jettySize=auto;html=1;exitX=0.5;exitY=1;exitDx=0;exitDy=0;entryX=0.5;entryY=0;entryDx=0;entryDy=0;" edge="1" parent="JNcYGzSb4ig69omvqPZq-2" target="JNcYGzSb4ig69omvqPZq-8">
          <mxGeometry relative="1" as="geometry">
            <mxPoint x="190.5" y="122" as="sourcePoint" />
          </mxGeometry>
        </mxCell>
        <mxCell id="JNcYGzSb4ig69omvqPZq-4" value="" style="ellipse;shape=startState;fillColor=#000000;strokeColor=#ff0000;" vertex="1" parent="JNcYGzSb4ig69omvqPZq-2">
          <mxGeometry x="175.5" y="42" width="30" height="30" as="geometry" />
        </mxCell>
        <mxCell id="JNcYGzSb4ig69omvqPZq-5" style="edgeStyle=orthogonalEdgeStyle;rounded=0;orthogonalLoop=1;jettySize=auto;html=1;exitX=0.5;exitY=1;exitDx=0;exitDy=0;entryX=0;entryY=0.5;entryDx=0;entryDy=0;" edge="1" parent="JNcYGzSb4ig69omvqPZq-2" source="JNcYGzSb4ig69omvqPZq-6" target="JNcYGzSb4ig69omvqPZq-20">
          <mxGeometry relative="1" as="geometry">
            <Array as="points">
              <mxPoint x="115" y="210" />
              <mxPoint x="66" y="210" />
              <mxPoint x="66" y="122" />
            </Array>
          </mxGeometry>
        </mxCell>
        <mxCell id="JNcYGzSb4ig69omvqPZq-6" value="Info" style="rounded=1;whiteSpace=wrap;html=1;fillColor=#00FFFF;" vertex="1" parent="JNcYGzSb4ig69omvqPZq-2">
          <mxGeometry x="85.5" y="162" width="59.5" height="28" as="geometry" />
        </mxCell>
        <mxCell id="JNcYGzSb4ig69omvqPZq-7" style="edgeStyle=orthogonalEdgeStyle;rounded=0;orthogonalLoop=1;jettySize=auto;html=1;exitX=0.5;exitY=1;exitDx=0;exitDy=0;entryX=0.5;entryY=0;entryDx=0;entryDy=0;" edge="1" parent="JNcYGzSb4ig69omvqPZq-2" source="JNcYGzSb4ig69omvqPZq-8" target="JNcYGzSb4ig69omvqPZq-17">
          <mxGeometry relative="1" as="geometry" />
        </mxCell>
        <mxCell id="JNcYGzSb4ig69omvqPZq-8" value="Buy" style="rounded=1;whiteSpace=wrap;html=1;fillColor=#00CC00;" vertex="1" parent="JNcYGzSb4ig69omvqPZq-2">
          <mxGeometry x="160.75" y="162" width="59.5" height="28" as="geometry" />
        </mxCell>
        <mxCell id="JNcYGzSb4ig69omvqPZq-9" style="edgeStyle=orthogonalEdgeStyle;rounded=0;orthogonalLoop=1;jettySize=auto;html=1;exitX=0.5;exitY=1;exitDx=0;exitDy=0;entryX=0.5;entryY=0;entryDx=0;entryDy=0;" edge="1" parent="JNcYGzSb4ig69omvqPZq-2" source="JNcYGzSb4ig69omvqPZq-13" target="JNcYGzSb4ig69omvqPZq-14">
          <mxGeometry relative="1" as="geometry" />
        </mxCell>
        <mxCell id="JNcYGzSb4ig69omvqPZq-10" value="YES" style="edgeLabel;html=1;align=center;verticalAlign=middle;resizable=0;points=[];" vertex="1" connectable="0" parent="JNcYGzSb4ig69omvqPZq-9">
          <mxGeometry x="-0.4118" y="4" relative="1" as="geometry">
            <mxPoint x="9" as="offset" />
          </mxGeometry>
        </mxCell>
        <mxCell id="JNcYGzSb4ig69omvqPZq-11" style="edgeStyle=orthogonalEdgeStyle;rounded=0;orthogonalLoop=1;jettySize=auto;html=1;exitX=0;exitY=0.5;exitDx=0;exitDy=0;entryX=0.25;entryY=0;entryDx=0;entryDy=0;" edge="1" parent="JNcYGzSb4ig69omvqPZq-2" source="JNcYGzSb4ig69omvqPZq-13" target="JNcYGzSb4ig69omvqPZq-20">
          <mxGeometry relative="1" as="geometry">
            <Array as="points">
              <mxPoint x="50" y="392" />
              <mxPoint x="50" y="90" />
              <mxPoint x="163" y="90" />
            </Array>
          </mxGeometry>
        </mxCell>
        <mxCell id="JNcYGzSb4ig69omvqPZq-12" value="NO" style="edgeLabel;html=1;align=center;verticalAlign=middle;resizable=0;points=[];" vertex="1" connectable="0" parent="JNcYGzSb4ig69omvqPZq-11">
          <mxGeometry x="-0.8899" y="-4" relative="1" as="geometry">
            <mxPoint x="8" y="-5" as="offset" />
          </mxGeometry>
        </mxCell>
        <mxCell id="JNcYGzSb4ig69omvqPZq-13" value="Balance&lt;br&gt;ok?" style="rhombus;whiteSpace=wrap;html=1;" vertex="1" parent="JNcYGzSb4ig69omvqPZq-2">
          <mxGeometry x="150.5" y="352" width="80" height="80" as="geometry" />
        </mxCell>
        <mxCell id="JNcYGzSb4ig69omvqPZq-14" value="Bought" style="rounded=1;whiteSpace=wrap;html=1;" vertex="1" parent="JNcYGzSb4ig69omvqPZq-2">
          <mxGeometry x="160.75" y="466" width="59.5" height="28" as="geometry" />
        </mxCell>
        <mxCell id="JNcYGzSb4ig69omvqPZq-15" style="edgeStyle=orthogonalEdgeStyle;rounded=0;orthogonalLoop=1;jettySize=auto;html=1;exitX=0.5;exitY=1;exitDx=0;exitDy=0;entryX=0.5;entryY=0;entryDx=0;entryDy=0;" edge="1" parent="JNcYGzSb4ig69omvqPZq-2" source="JNcYGzSb4ig69omvqPZq-17" target="JNcYGzSb4ig69omvqPZq-13">
          <mxGeometry relative="1" as="geometry" />
        </mxCell>
        <mxCell id="JNcYGzSb4ig69omvqPZq-16" value="BUY" style="edgeLabel;html=1;align=center;verticalAlign=middle;resizable=0;points=[];" vertex="1" connectable="0" parent="JNcYGzSb4ig69omvqPZq-15">
          <mxGeometry x="-0.4" y="3" relative="1" as="geometry">
            <mxPoint x="10" as="offset" />
          </mxGeometry>
        </mxCell>
        <mxCell id="JNcYGzSb4ig69omvqPZq-17" value="Purchase&lt;br&gt;Item" style="rhombus;whiteSpace=wrap;html=1;" vertex="1" parent="JNcYGzSb4ig69omvqPZq-2">
          <mxGeometry x="150.5" y="232" width="80" height="80" as="geometry" />
        </mxCell>
        <mxCell id="JNcYGzSb4ig69omvqPZq-18" value="" style="edgeStyle=orthogonalEdgeStyle;rounded=0;orthogonalLoop=1;jettySize=auto;html=1;exitX=0.5;exitY=1;exitDx=0;exitDy=0;entryX=0.5;entryY=0;entryDx=0;entryDy=0;" edge="1" parent="JNcYGzSb4ig69omvqPZq-2" source="JNcYGzSb4ig69omvqPZq-4">
          <mxGeometry relative="1" as="geometry">
            <mxPoint x="635.5" y="200" as="sourcePoint" />
            <mxPoint x="190.5" y="112" as="targetPoint" />
          </mxGeometry>
        </mxCell>
        <mxCell id="JNcYGzSb4ig69omvqPZq-19" style="edgeStyle=orthogonalEdgeStyle;rounded=0;orthogonalLoop=1;jettySize=auto;html=1;exitX=0.25;exitY=1;exitDx=0;exitDy=0;entryX=0.5;entryY=0;entryDx=0;entryDy=0;" edge="1" parent="JNcYGzSb4ig69omvqPZq-2" source="JNcYGzSb4ig69omvqPZq-20" target="JNcYGzSb4ig69omvqPZq-6">
          <mxGeometry relative="1" as="geometry">
            <Array as="points">
              <mxPoint x="163" y="142" />
              <mxPoint x="116" y="142" />
            </Array>
          </mxGeometry>
        </mxCell>
        <mxCell id="JNcYGzSb4ig69omvqPZq-20" value="&lt;font color=&quot;#ffffff&quot;&gt;Market&lt;/font&gt;" style="rounded=0;whiteSpace=wrap;html=1;fillColor=#000000;fontStyle=1" vertex="1" parent="JNcYGzSb4ig69omvqPZq-2">
          <mxGeometry x="135.5" y="112" width="110" height="20" as="geometry" />
        </mxCell>
        <mxCell id="JNcYGzSb4ig69omvqPZq-21" style="edgeStyle=orthogonalEdgeStyle;rounded=0;orthogonalLoop=1;jettySize=auto;html=1;exitX=1;exitY=0.5;exitDx=0;exitDy=0;entryX=0.891;entryY=1.05;entryDx=0;entryDy=0;entryPerimeter=0;" edge="1" parent="JNcYGzSb4ig69omvqPZq-2" source="JNcYGzSb4ig69omvqPZq-17" target="JNcYGzSb4ig69omvqPZq-20">
          <mxGeometry relative="1" as="geometry">
            <Array as="points">
              <mxPoint x="306" y="272" />
              <mxPoint x="306" y="232" />
              <mxPoint x="234" y="232" />
            </Array>
          </mxGeometry>
        </mxCell>
        <mxCell id="JNcYGzSb4ig69omvqPZq-22" value="CLOSE" style="edgeLabel;html=1;align=center;verticalAlign=middle;resizable=0;points=[];" vertex="1" connectable="0" parent="JNcYGzSb4ig69omvqPZq-21">
          <mxGeometry x="-0.8606" y="1" relative="1" as="geometry">
            <mxPoint x="6" y="-8" as="offset" />
          </mxGeometry>
        </mxCell>
        <mxCell id="JNcYGzSb4ig69omvqPZq-23" value="Sell" style="rounded=1;whiteSpace=wrap;html=1;strokeColor=#FF3333;strokeWidth=3;gradientColor=none;fontColor=#FF3333;fontStyle=1" vertex="1" parent="JNcYGzSb4ig69omvqPZq-2">
          <mxGeometry x="433.25" y="162" width="59.5" height="28" as="geometry" />
        </mxCell>
        <mxCell id="JNcYGzSb4ig69omvqPZq-24" style="edgeStyle=orthogonalEdgeStyle;rounded=0;orthogonalLoop=1;jettySize=auto;html=1;exitX=1;exitY=0.5;exitDx=0;exitDy=0;entryX=0;entryY=0.5;entryDx=0;entryDy=0;dashed=1;" edge="1" parent="JNcYGzSb4ig69omvqPZq-2" source="JNcYGzSb4ig69omvqPZq-14" target="JNcYGzSb4ig69omvqPZq-23">
          <mxGeometry relative="1" as="geometry" />
        </mxCell>
        <mxCell id="JNcYGzSb4ig69omvqPZq-25" value="DEPENDENCE" style="edgeLabel;html=1;align=center;verticalAlign=middle;resizable=0;points=[];" vertex="1" connectable="0" parent="JNcYGzSb4ig69omvqPZq-24">
          <mxGeometry x="-0.851" relative="1" as="geometry">
            <mxPoint x="3" y="-9" as="offset" />
          </mxGeometry>
        </mxCell>
        <mxCell id="JNcYGzSb4ig69omvqPZq-26" value="Sell&lt;br&gt;Item" style="rhombus;whiteSpace=wrap;html=1;" vertex="1" parent="JNcYGzSb4ig69omvqPZq-2">
          <mxGeometry x="423" y="220" width="80" height="80" as="geometry" />
        </mxCell>
        <mxCell id="JNcYGzSb4ig69omvqPZq-27" style="edgeStyle=orthogonalEdgeStyle;rounded=0;orthogonalLoop=1;jettySize=auto;html=1;exitX=1;exitY=0.5;exitDx=0;exitDy=0;entryX=0.75;entryY=0;entryDx=0;entryDy=0;" edge="1" parent="JNcYGzSb4ig69omvqPZq-2" source="JNcYGzSb4ig69omvqPZq-26" target="JNcYGzSb4ig69omvqPZq-20">
          <mxGeometry relative="1" as="geometry">
            <Array as="points">
              <mxPoint x="563" y="260" />
              <mxPoint x="563" y="92" />
              <mxPoint x="218" y="92" />
            </Array>
          </mxGeometry>
        </mxCell>
        <mxCell id="JNcYGzSb4ig69omvqPZq-28" value="CLOSE" style="edgeLabel;html=1;align=center;verticalAlign=middle;resizable=0;points=[];" vertex="1" connectable="0" parent="JNcYGzSb4ig69omvqPZq-27">
          <mxGeometry x="-0.9089" y="-4" relative="1" as="geometry">
            <mxPoint x="-2" y="-12" as="offset" />
          </mxGeometry>
        </mxCell>
        <mxCell id="JNcYGzSb4ig69omvqPZq-29" value="Sold" style="rounded=1;whiteSpace=wrap;html=1;" vertex="1" parent="JNcYGzSb4ig69omvqPZq-2">
          <mxGeometry x="433.25" y="466" width="59.5" height="28" as="geometry" />
        </mxCell>
        <mxCell id="JNcYGzSb4ig69omvqPZq-30" style="edgeStyle=orthogonalEdgeStyle;rounded=0;orthogonalLoop=1;jettySize=auto;html=1;exitX=0.5;exitY=1;exitDx=0;exitDy=0;entryX=0.5;entryY=0;entryDx=0;entryDy=0;" edge="1" parent="JNcYGzSb4ig69omvqPZq-2" source="JNcYGzSb4ig69omvqPZq-23" target="JNcYGzSb4ig69omvqPZq-26">
          <mxGeometry relative="1" as="geometry" />
        </mxCell>
        <mxCell id="JNcYGzSb4ig69omvqPZq-31" style="edgeStyle=orthogonalEdgeStyle;rounded=0;orthogonalLoop=1;jettySize=auto;html=1;exitX=0.5;exitY=1;exitDx=0;exitDy=0;entryX=0.5;entryY=0;entryDx=0;entryDy=0;" edge="1" parent="JNcYGzSb4ig69omvqPZq-2" source="JNcYGzSb4ig69omvqPZq-26" target="JNcYGzSb4ig69omvqPZq-29">
          <mxGeometry relative="1" as="geometry" />
        </mxCell>
        <mxCell id="JNcYGzSb4ig69omvqPZq-32" value="SELL" style="edgeLabel;html=1;align=center;verticalAlign=middle;resizable=0;points=[];" vertex="1" connectable="0" parent="JNcYGzSb4ig69omvqPZq-31">
          <mxGeometry x="-0.5714" y="4" relative="1" as="geometry">
            <mxPoint x="13" y="-16" as="offset" />
          </mxGeometry>
        </mxCell>
        <mxCell id="JNcYGzSb4ig69omvqPZq-33" style="edgeStyle=orthogonalEdgeStyle;rounded=0;orthogonalLoop=1;jettySize=auto;html=1;exitX=1;exitY=0.5;exitDx=0;exitDy=0;entryX=0.677;entryY=-0.05;entryDx=0;entryDy=0;entryPerimeter=0;" edge="1" parent="JNcYGzSb4ig69omvqPZq-2" source="JNcYGzSb4ig69omvqPZq-29" target="JNcYGzSb4ig69omvqPZq-20">
          <mxGeometry relative="1" as="geometry">
            <Array as="points">
              <mxPoint x="583" y="480" />
              <mxPoint x="583" y="80" />
              <mxPoint x="210" y="80" />
            </Array>
          </mxGeometry>
        </mxCell>
        <mxCell id="JNcYGzSb4ig69omvqPZq-34" style="edgeStyle=orthogonalEdgeStyle;rounded=0;orthogonalLoop=1;jettySize=auto;html=1;exitX=0;exitY=0.5;exitDx=0;exitDy=0;entryX=0.395;entryY=0;entryDx=0;entryDy=0;entryPerimeter=0;" edge="1" parent="JNcYGzSb4ig69omvqPZq-2" source="JNcYGzSb4ig69omvqPZq-14" target="JNcYGzSb4ig69omvqPZq-20">
          <mxGeometry relative="1" as="geometry">
            <Array as="points">
              <mxPoint x="20" y="480" />
              <mxPoint x="20" y="80" />
              <mxPoint x="179" y="80" />
            </Array>
          </mxGeometry>
        </mxCell>
        <mxCell id="JNcYGzSb4ig69omvqPZq-35" value="Login" style="swimlane;whiteSpace=wrap;html=1;" vertex="1" parent="JNcYGzSb4ig69omvqPZq-1">
          <mxGeometry x="20" y="60" width="270" height="530" as="geometry" />
        </mxCell>
        <mxCell id="JNcYGzSb4ig69omvqPZq-36" style="edgeStyle=orthogonalEdgeStyle;rounded=0;orthogonalLoop=1;jettySize=auto;html=1;exitX=0.5;exitY=1;exitDx=0;exitDy=0;entryX=0.5;entryY=0;entryDx=0;entryDy=0;" edge="1" parent="JNcYGzSb4ig69omvqPZq-35" source="JNcYGzSb4ig69omvqPZq-37" target="JNcYGzSb4ig69omvqPZq-39">
          <mxGeometry relative="1" as="geometry" />
        </mxCell>
        <mxCell id="JNcYGzSb4ig69omvqPZq-37" value="" style="ellipse;shape=startState;fillColor=#000000;strokeColor=#ff0000;" vertex="1" parent="JNcYGzSb4ig69omvqPZq-35">
          <mxGeometry x="130" y="42" width="30" height="30" as="geometry" />
        </mxCell>
        <mxCell id="JNcYGzSb4ig69omvqPZq-38" style="edgeStyle=orthogonalEdgeStyle;rounded=0;orthogonalLoop=1;jettySize=auto;html=1;exitX=0.5;exitY=1;exitDx=0;exitDy=0;entryX=0.5;entryY=0;entryDx=0;entryDy=0;" edge="1" parent="JNcYGzSb4ig69omvqPZq-35" source="JNcYGzSb4ig69omvqPZq-39" target="JNcYGzSb4ig69omvqPZq-42">
          <mxGeometry relative="1" as="geometry" />
        </mxCell>
        <mxCell id="JNcYGzSb4ig69omvqPZq-39" value="Input&lt;br&gt;credentials" style="shape=parallelogram;perimeter=parallelogramPerimeter;whiteSpace=wrap;html=1;fixedSize=1;" vertex="1" parent="JNcYGzSb4ig69omvqPZq-35">
          <mxGeometry x="85" y="102" width="120" height="60" as="geometry" />
        </mxCell>
        <mxCell id="JNcYGzSb4ig69omvqPZq-40" style="edgeStyle=orthogonalEdgeStyle;rounded=0;orthogonalLoop=1;jettySize=auto;html=1;exitX=0;exitY=0.5;exitDx=0;exitDy=0;entryX=0;entryY=0.5;entryDx=0;entryDy=0;" edge="1" parent="JNcYGzSb4ig69omvqPZq-35" source="JNcYGzSb4ig69omvqPZq-42" target="JNcYGzSb4ig69omvqPZq-39">
          <mxGeometry relative="1" as="geometry">
            <Array as="points">
              <mxPoint x="20" y="240" />
              <mxPoint x="20" y="132" />
            </Array>
          </mxGeometry>
        </mxCell>
        <mxCell id="JNcYGzSb4ig69omvqPZq-41" value="NO" style="edgeLabel;html=1;align=center;verticalAlign=middle;resizable=0;points=[];" vertex="1" connectable="0" parent="JNcYGzSb4ig69omvqPZq-40">
          <mxGeometry x="-0.863" relative="1" as="geometry">
            <mxPoint x="1" y="-9" as="offset" />
          </mxGeometry>
        </mxCell>
        <mxCell id="JNcYGzSb4ig69omvqPZq-42" value="Credentials&lt;br&gt;are&lt;br&gt;valid?" style="rhombus;whiteSpace=wrap;html=1;" vertex="1" parent="JNcYGzSb4ig69omvqPZq-35">
          <mxGeometry x="92.5" y="190" width="105" height="100" as="geometry" />
        </mxCell>
        <mxCell id="JNcYGzSb4ig69omvqPZq-43" style="edgeStyle=orthogonalEdgeStyle;rounded=0;orthogonalLoop=1;jettySize=auto;html=1;exitX=0.5;exitY=1;exitDx=0;exitDy=0;" edge="1" parent="JNcYGzSb4ig69omvqPZq-1" source="JNcYGzSb4ig69omvqPZq-42">
          <mxGeometry relative="1" as="geometry">
            <mxPoint x="470" y="117" as="targetPoint" />
            <Array as="points">
              <mxPoint x="165" y="400" />
              <mxPoint x="250" y="400" />
              <mxPoint x="250" y="117" />
            </Array>
          </mxGeometry>
        </mxCell>
        <mxCell id="JNcYGzSb4ig69omvqPZq-44" value="YES" style="edgeLabel;html=1;align=center;verticalAlign=middle;resizable=0;points=[];" vertex="1" connectable="0" parent="JNcYGzSb4ig69omvqPZq-43">
          <mxGeometry x="-0.9644" y="-2" relative="1" as="geometry">
            <mxPoint x="17" y="10" as="offset" />
          </mxGeometry>
        </mxCell>
        <mxCell id="HoNXbtiO2UvbPn8lKMxH-0" value="Admin Panel" style="swimlane;whiteSpace=wrap;html=1;" vertex="1" parent="JNcYGzSb4ig69omvqPZq-1">
          <mxGeometry x="900" y="60" width="670" height="530" as="geometry" />
        </mxCell>
        <mxCell id="HoNXbtiO2UvbPn8lKMxH-1" value="" style="ellipse;shape=startState;fillColor=#000000;strokeColor=#ff0000;" vertex="1" parent="HoNXbtiO2UvbPn8lKMxH-0">
          <mxGeometry x="320" y="50" width="30" height="30" as="geometry" />
        </mxCell>
        <mxCell id="HoNXbtiO2UvbPn8lKMxH-2" value="" style="edgeStyle=orthogonalEdgeStyle;rounded=0;orthogonalLoop=1;jettySize=auto;html=1;exitX=0.5;exitY=1;exitDx=0;exitDy=0;entryX=0.5;entryY=0;entryDx=0;entryDy=0;" edge="1" parent="HoNXbtiO2UvbPn8lKMxH-0" source="HoNXbtiO2UvbPn8lKMxH-1">
          <mxGeometry relative="1" as="geometry">
            <mxPoint x="780" y="208" as="sourcePoint" />
            <mxPoint x="335" y="120" as="targetPoint" />
          </mxGeometry>
        </mxCell>
        <mxCell id="RmkVNi2vxcytg_DqRBWR-12" style="edgeStyle=orthogonalEdgeStyle;rounded=0;orthogonalLoop=1;jettySize=auto;html=1;exitX=0.25;exitY=1;exitDx=0;exitDy=0;" edge="1" parent="HoNXbtiO2UvbPn8lKMxH-0" source="RmkVNi2vxcytg_DqRBWR-0" target="RmkVNi2vxcytg_DqRBWR-1">
          <mxGeometry relative="1" as="geometry">
            <Array as="points">
              <mxPoint x="308" y="200" />
              <mxPoint x="150" y="200" />
            </Array>
          </mxGeometry>
        </mxCell>
        <mxCell id="RmkVNi2vxcytg_DqRBWR-15" style="edgeStyle=orthogonalEdgeStyle;rounded=0;orthogonalLoop=1;jettySize=auto;html=1;exitX=0.75;exitY=1;exitDx=0;exitDy=0;entryX=0.5;entryY=0;entryDx=0;entryDy=0;" edge="1" parent="HoNXbtiO2UvbPn8lKMxH-0" source="RmkVNi2vxcytg_DqRBWR-0" target="RmkVNi2vxcytg_DqRBWR-11">
          <mxGeometry relative="1" as="geometry">
            <Array as="points">
              <mxPoint x="363" y="200" />
              <mxPoint x="520" y="200" />
            </Array>
          </mxGeometry>
        </mxCell>
        <mxCell id="RmkVNi2vxcytg_DqRBWR-0" value="Admin Panel" style="rounded=0;whiteSpace=wrap;html=1;fillColor=#000000;fontStyle=1;fontColor=#FFFFFF;" vertex="1" parent="HoNXbtiO2UvbPn8lKMxH-0">
          <mxGeometry x="280" y="120" width="110" height="20" as="geometry" />
        </mxCell>
        <mxCell id="RmkVNi2vxcytg_DqRBWR-5" value="" style="swimlane;startSize=0;dashed=1;" vertex="1" parent="HoNXbtiO2UvbPn8lKMxH-0">
          <mxGeometry x="80" y="180" width="240" height="110" as="geometry" />
        </mxCell>
        <mxCell id="RmkVNi2vxcytg_DqRBWR-1" value="Info" style="rounded=1;whiteSpace=wrap;html=1;fillColor=#00FFFF;" vertex="1" parent="RmkVNi2vxcytg_DqRBWR-5">
          <mxGeometry x="40.25" y="41" width="59.5" height="28" as="geometry" />
        </mxCell>
        <mxCell id="RmkVNi2vxcytg_DqRBWR-13" style="edgeStyle=orthogonalEdgeStyle;rounded=0;orthogonalLoop=1;jettySize=auto;html=1;exitX=0.5;exitY=0;exitDx=0;exitDy=0;startArrow=classic;startFill=1;endArrow=none;endFill=0;" edge="1" parent="RmkVNi2vxcytg_DqRBWR-5" source="RmkVNi2vxcytg_DqRBWR-2">
          <mxGeometry relative="1" as="geometry">
            <mxPoint x="230" y="-40" as="targetPoint" />
            <Array as="points">
              <mxPoint x="170" y="20" />
              <mxPoint x="231" y="20" />
            </Array>
          </mxGeometry>
        </mxCell>
        <mxCell id="RmkVNi2vxcytg_DqRBWR-2" value="Delete" style="rounded=1;whiteSpace=wrap;html=1;fillColor=#FF3333;" vertex="1" parent="RmkVNi2vxcytg_DqRBWR-5">
          <mxGeometry x="140.25" y="41" width="59.5" height="28" as="geometry" />
        </mxCell>
        <mxCell id="RmkVNi2vxcytg_DqRBWR-9" value="" style="swimlane;startSize=0;dashed=1;" vertex="1" parent="HoNXbtiO2UvbPn8lKMxH-0">
          <mxGeometry x="350" y="180" width="240" height="110" as="geometry" />
        </mxCell>
        <mxCell id="RmkVNi2vxcytg_DqRBWR-11" value="Delete" style="rounded=1;whiteSpace=wrap;html=1;fillColor=#FF3333;" vertex="1" parent="RmkVNi2vxcytg_DqRBWR-9">
          <mxGeometry x="140.25" y="41" width="59.5" height="28" as="geometry" />
        </mxCell>
        <mxCell id="RmkVNi2vxcytg_DqRBWR-17" value="&lt;div&gt;Control Users&lt;/div&gt;" style="text;html=1;strokeColor=none;fillColor=none;align=center;verticalAlign=middle;whiteSpace=wrap;rounded=0;fontStyle=1" vertex="1" parent="HoNXbtiO2UvbPn8lKMxH-0">
          <mxGeometry x="410" y="150" width="120" height="30" as="geometry" />
        </mxCell>
        <mxCell id="RmkVNi2vxcytg_DqRBWR-19" value="&lt;div&gt;Control Products&lt;/div&gt;" style="text;html=1;strokeColor=none;fillColor=none;align=center;verticalAlign=middle;whiteSpace=wrap;rounded=0;fontStyle=1" vertex="1" parent="HoNXbtiO2UvbPn8lKMxH-0">
          <mxGeometry x="140" y="150" width="120" height="30" as="geometry" />
        </mxCell>
      </root>
    </mxGraphModel>
  </diagram>
  <diagram id="jnKgqKfvV83ca1Tx8vtY" name="diagramme de cas d&#39;utilisation">
    <mxGraphModel dx="1350" dy="779" grid="1" gridSize="10" guides="1" tooltips="1" connect="1" arrows="1" fold="1" page="1" pageScale="1" pageWidth="827" pageHeight="1169" math="0" shadow="0">
      <root>
        <mxCell id="0" />
        <mxCell id="1" parent="0" />
        <mxCell id="4-1DlO7Khlwbj6eohYCo-13" value="" style="rounded=0;whiteSpace=wrap;html=1;fillColor=#E6E6E6;" parent="1" vertex="1">
          <mxGeometry x="390" y="310" width="180" height="350" as="geometry" />
        </mxCell>
        <mxCell id="4-1DlO7Khlwbj6eohYCo-1" value="Admin" style="shape=umlActor;verticalLabelPosition=bottom;verticalAlign=top;html=1;outlineConnect=0;" parent="1" vertex="1">
          <mxGeometry x="238" y="110" width="30" height="60" as="geometry" />
        </mxCell>
        <mxCell id="4-1DlO7Khlwbj6eohYCo-19" style="edgeStyle=orthogonalEdgeStyle;rounded=0;orthogonalLoop=1;jettySize=auto;html=1;exitX=0.25;exitY=0.1;exitDx=0;exitDy=0;exitPerimeter=0;entryX=1;entryY=1;entryDx=0;entryDy=0;" parent="1" source="4-1DlO7Khlwbj6eohYCo-2" target="4-1DlO7Khlwbj6eohYCo-3" edge="1">
          <mxGeometry relative="1" as="geometry" />
        </mxCell>
        <mxCell id="4-1DlO7Khlwbj6eohYCo-20" style="edgeStyle=orthogonalEdgeStyle;rounded=0;orthogonalLoop=1;jettySize=auto;html=1;exitX=0.5;exitY=0;exitDx=0;exitDy=0;exitPerimeter=0;entryX=0;entryY=1;entryDx=0;entryDy=0;" parent="1" source="4-1DlO7Khlwbj6eohYCo-2" target="4-1DlO7Khlwbj6eohYCo-4" edge="1">
          <mxGeometry relative="1" as="geometry" />
        </mxCell>
        <mxCell id="4-1DlO7Khlwbj6eohYCo-21" style="edgeStyle=orthogonalEdgeStyle;rounded=0;orthogonalLoop=1;jettySize=auto;html=1;exitX=0.75;exitY=0.1;exitDx=0;exitDy=0;exitPerimeter=0;" parent="1" source="4-1DlO7Khlwbj6eohYCo-2" target="4-1DlO7Khlwbj6eohYCo-13" edge="1">
          <mxGeometry relative="1" as="geometry" />
        </mxCell>
        <mxCell id="4-1DlO7Khlwbj6eohYCo-2" value="User" style="shape=umlActor;verticalLabelPosition=bottom;verticalAlign=top;html=1;outlineConnect=0;" parent="1" vertex="1">
          <mxGeometry x="238" y="479" width="30" height="60" as="geometry" />
        </mxCell>
        <mxCell id="4-1DlO7Khlwbj6eohYCo-11" style="edgeStyle=orthogonalEdgeStyle;rounded=0;orthogonalLoop=1;jettySize=auto;html=1;exitX=1;exitY=0.5;exitDx=0;exitDy=0;entryX=0;entryY=0.5;entryDx=0;entryDy=0;dashed=1;strokeWidth=2;" parent="1" source="4-1DlO7Khlwbj6eohYCo-3" target="4-1DlO7Khlwbj6eohYCo-4" edge="1">
          <mxGeometry relative="1" as="geometry" />
        </mxCell>
        <mxCell id="4-1DlO7Khlwbj6eohYCo-3" value="Create&lt;br&gt;Account" style="ellipse;whiteSpace=wrap;html=1;" parent="1" vertex="1">
          <mxGeometry x="120" y="340" width="90" height="60" as="geometry" />
        </mxCell>
        <mxCell id="4-1DlO7Khlwbj6eohYCo-4" value="Login" style="ellipse;whiteSpace=wrap;html=1;" parent="1" vertex="1">
          <mxGeometry x="240" y="340" width="90" height="60" as="geometry" />
        </mxCell>
        <mxCell id="4-1DlO7Khlwbj6eohYCo-5" value="Get Info" style="ellipse;whiteSpace=wrap;html=1;" parent="1" vertex="1">
          <mxGeometry x="430" y="340" width="90" height="60" as="geometry" />
        </mxCell>
        <mxCell id="4-1DlO7Khlwbj6eohYCo-8" style="edgeStyle=orthogonalEdgeStyle;rounded=0;orthogonalLoop=1;jettySize=auto;html=1;exitX=0.5;exitY=1;exitDx=0;exitDy=0;entryX=0.5;entryY=0;entryDx=0;entryDy=0;dashed=1;strokeWidth=2;" parent="1" source="4-1DlO7Khlwbj6eohYCo-6" target="4-1DlO7Khlwbj6eohYCo-7" edge="1">
          <mxGeometry relative="1" as="geometry" />
        </mxCell>
        <mxCell id="4-1DlO7Khlwbj6eohYCo-6" value="Buy" style="ellipse;whiteSpace=wrap;html=1;" parent="1" vertex="1">
          <mxGeometry x="430" y="450" width="90" height="60" as="geometry" />
        </mxCell>
        <mxCell id="4-1DlO7Khlwbj6eohYCo-7" value="Sell" style="ellipse;whiteSpace=wrap;html=1;" parent="1" vertex="1">
          <mxGeometry x="430" y="570" width="90" height="60" as="geometry" />
        </mxCell>
        <mxCell id="4-1DlO7Khlwbj6eohYCo-14" style="edgeStyle=orthogonalEdgeStyle;rounded=0;orthogonalLoop=1;jettySize=auto;html=1;exitX=1;exitY=0.5;exitDx=0;exitDy=0;entryX=0.011;entryY=0.174;entryDx=0;entryDy=0;entryPerimeter=0;strokeWidth=2;dashed=1;" parent="1" source="4-1DlO7Khlwbj6eohYCo-4" target="4-1DlO7Khlwbj6eohYCo-13" edge="1">
          <mxGeometry relative="1" as="geometry" />
        </mxCell>
      </root>
    </mxGraphModel>
  </diagram>
  <diagram id="u1mleTq00JimC1rTDoOP" name="gantt">
    <mxGraphModel dx="1350" dy="779" grid="1" gridSize="10" guides="1" tooltips="1" connect="1" arrows="1" fold="1" page="1" pageScale="1" pageWidth="827" pageHeight="1169" math="0" shadow="0">
      <root>
        <mxCell id="0" />
        <mxCell id="1" parent="0" />
        <mxCell id="TQK9tkGC_5yHpwooWtxl-1" value="" style="strokeColor=#DEEDFF;fillColor=#CCE5FF;" vertex="1" parent="1">
          <mxGeometry x="86.5" y="380" width="40" height="20" as="geometry" />
        </mxCell>
        <mxCell id="TQK9tkGC_5yHpwooWtxl-2" value="RÃ©alisation des Ã©tapes de projet" style="align=left;strokeColor=#DEEDFF;fillColor=#CCE5FF;" vertex="1" parent="1">
          <mxGeometry x="126.5" y="380" width="320" height="20" as="geometry" />
        </mxCell>
        <mxCell id="TQK9tkGC_5yHpwooWtxl-3" value="3,5 days" style="strokeColor=#DEEDFF;fillColor=#CCE5FF;" vertex="1" parent="1">
          <mxGeometry x="446.50000000000176" y="380" width="80.00000000000028" height="20" as="geometry" />
        </mxCell>
        <mxCell id="TQK9tkGC_5yHpwooWtxl-4" value="08.02.24" style="strokeColor=#DEEDFF;fillColor=#CCE5FF;" vertex="1" parent="1">
          <mxGeometry x="526.500000000002" y="380" width="80.00000000000028" height="20" as="geometry" />
        </mxCell>
        <mxCell id="TQK9tkGC_5yHpwooWtxl-5" value="13.02.24" style="strokeColor=#DEEDFF;fillColor=#CCE5FF;" vertex="1" parent="1">
          <mxGeometry x="606.5000000000016" y="380.0000000000002" width="80.00000000000028" height="20" as="geometry" />
        </mxCell>
        <mxCell id="TQK9tkGC_5yHpwooWtxl-6" value="" style="strokeColor=#DEEDFF" vertex="1" parent="1">
          <mxGeometry x="686.5" y="380" width="20" height="260" as="geometry" />
        </mxCell>
        <mxCell id="TQK9tkGC_5yHpwooWtxl-7" value="1" style="strokeColor=#EBF1FF;fillColor=#FFFFFF;" vertex="1" parent="1">
          <mxGeometry x="86.50000000000026" y="399.9999999999999" width="40" height="20" as="geometry" />
        </mxCell>
        <mxCell id="TQK9tkGC_5yHpwooWtxl-8" value="Liste de fonctionnalitÃ©s et exigences implicites" style="align=left;strokeColor=#DEEDFF;fillColor=#FFFFFF;" vertex="1" parent="1">
          <mxGeometry x="126.50000000000026" y="399.9999999999999" width="319.9999999999998" height="20" as="geometry" />
        </mxCell>
        <mxCell id="TQK9tkGC_5yHpwooWtxl-9" value="1,5 days" style="strokeColor=#DEEDFF;fillColor=#FFFFFF;" vertex="1" parent="1">
          <mxGeometry x="446.500000000002" y="399.99999999999983" width="80.00000000000028" height="20" as="geometry" />
        </mxCell>
        <mxCell id="TQK9tkGC_5yHpwooWtxl-10" value="08.02.24" style="strokeColor=#DEEDFF;fillColor=#FFFFFF;" vertex="1" parent="1">
          <mxGeometry x="526.5000000000023" y="399.99999999999983" width="80.00000000000028" height="20" as="geometry" />
        </mxCell>
        <mxCell id="TQK9tkGC_5yHpwooWtxl-11" value="09.02.24" style="strokeColor=#DEEDFF;fillColor=#FFFFFF;" vertex="1" parent="1">
          <mxGeometry x="606.5000000000018" y="400.0000000000001" width="80.00000000000028" height="20" as="geometry" />
        </mxCell>
        <mxCell id="TQK9tkGC_5yHpwooWtxl-12" value="2" style="strokeColor=#EBF1FF;fillColor=#FFFFFF;" vertex="1" parent="1">
          <mxGeometry x="86.50000000000027" y="419.9999999999998" width="40" height="20" as="geometry" />
        </mxCell>
        <mxCell id="TQK9tkGC_5yHpwooWtxl-13" value="Squash pour crÃ©er des cas de test" style="align=left;strokeColor=#DEEDFF" vertex="1" parent="1">
          <mxGeometry x="126.50000000000027" y="419.9999999999998" width="319.9999999999997" height="20.000000000000014" as="geometry" />
        </mxCell>
        <mxCell id="TQK9tkGC_5yHpwooWtxl-14" value="1,5Â days" style="strokeColor=#DEEDFF" vertex="1" parent="1">
          <mxGeometry x="446.500000000002" y="419.9999999999997" width="80.00000000000028" height="20" as="geometry" />
        </mxCell>
        <mxCell id="TQK9tkGC_5yHpwooWtxl-15" value="08.02.24" style="strokeColor=#DEEDFF" vertex="1" parent="1">
          <mxGeometry x="526.5000000000023" y="419.9999999999997" width="80.00000000000028" height="20" as="geometry" />
        </mxCell>
        <mxCell id="TQK9tkGC_5yHpwooWtxl-16" value="09.02.24" style="strokeColor=#DEEDFF" vertex="1" parent="1">
          <mxGeometry x="606.5000000000018" y="420" width="80.00000000000028" height="20" as="geometry" />
        </mxCell>
        <mxCell id="TQK9tkGC_5yHpwooWtxl-17" value="3" style="strokeColor=#EBF1FF;fillColor=#FFFFFF;" vertex="1" parent="1">
          <mxGeometry x="86.5" y="440.00000000000017" width="40" height="20" as="geometry" />
        </mxCell>
        <mxCell id="TQK9tkGC_5yHpwooWtxl-18" value="Diagramme de cas d&#39;utilisation" style="align=left;strokeColor=#DEEDFF" vertex="1" parent="1">
          <mxGeometry x="126.5" y="440.00000000000017" width="320" height="20" as="geometry" />
        </mxCell>
        <mxCell id="TQK9tkGC_5yHpwooWtxl-19" value="0,5 days" style="strokeColor=#DEEDFF" vertex="1" parent="1">
          <mxGeometry x="446.5000000000017" y="440.0000000000001" width="80.00000000000028" height="20" as="geometry" />
        </mxCell>
        <mxCell id="TQK9tkGC_5yHpwooWtxl-20" value="08.02.24" style="strokeColor=#DEEDFF" vertex="1" parent="1">
          <mxGeometry x="526.500000000002" y="440.0000000000001" width="80.00000000000028" height="20" as="geometry" />
        </mxCell>
        <mxCell id="TQK9tkGC_5yHpwooWtxl-21" value="08.02.24" style="strokeColor=#DEEDFF" vertex="1" parent="1">
          <mxGeometry x="606.5000000000015" y="440.0000000000004" width="80.00000000000028" height="20" as="geometry" />
        </mxCell>
        <mxCell id="TQK9tkGC_5yHpwooWtxl-22" value="4" style="strokeColor=#EBF1FF;fillColor=#FFFFFF;" vertex="1" parent="1">
          <mxGeometry x="86.5" y="460" width="40" height="20" as="geometry" />
        </mxCell>
        <mxCell id="TQK9tkGC_5yHpwooWtxl-23" value="Diagrammes d&#39;activitÃ©" style="align=left;strokeColor=#DEEDFF" vertex="1" parent="1">
          <mxGeometry x="126.49999999999991" y="460.00000000000017" width="320.0000000000001" height="20" as="geometry" />
        </mxCell>
        <mxCell id="TQK9tkGC_5yHpwooWtxl-24" value="1 day" style="strokeColor=#DEEDFF" vertex="1" parent="1">
          <mxGeometry x="446.50000000000165" y="460.0000000000001" width="80.00000000000028" height="20" as="geometry" />
        </mxCell>
        <mxCell id="TQK9tkGC_5yHpwooWtxl-25" value="08.02.24" style="strokeColor=#DEEDFF" vertex="1" parent="1">
          <mxGeometry x="526.5000000000019" y="460.0000000000001" width="80.00000000000028" height="20" as="geometry" />
        </mxCell>
        <mxCell id="TQK9tkGC_5yHpwooWtxl-26" value="09.02.24" style="strokeColor=#DEEDFF" vertex="1" parent="1">
          <mxGeometry x="606.5000000000015" y="460.0000000000004" width="80.00000000000028" height="20" as="geometry" />
        </mxCell>
        <mxCell id="TQK9tkGC_5yHpwooWtxl-27" value="5" style="strokeColor=#EBF1FF;fillColor=#FFFFFF;" vertex="1" parent="1">
          <mxGeometry x="86.4999999999999" y="480.00000000000045" width="40" height="20" as="geometry" />
        </mxCell>
        <mxCell id="TQK9tkGC_5yHpwooWtxl-28" value="Planning (diagramme de GANTT)" style="align=left;strokeColor=#DEEDFF" vertex="1" parent="1">
          <mxGeometry x="126.4999999999999" y="480.00000000000045" width="320.0000000000001" height="20" as="geometry" />
        </mxCell>
        <mxCell id="TQK9tkGC_5yHpwooWtxl-29" value="0,5 days" style="strokeColor=#DEEDFF" vertex="1" parent="1">
          <mxGeometry x="446.50000000000165" y="480.00000000000034" width="80.00000000000028" height="20" as="geometry" />
        </mxCell>
        <mxCell id="TQK9tkGC_5yHpwooWtxl-30" value="09.02.24" style="strokeColor=#DEEDFF" vertex="1" parent="1">
          <mxGeometry x="526.5000000000019" y="480.00000000000034" width="80.00000000000028" height="20" as="geometry" />
        </mxCell>
        <mxCell id="TQK9tkGC_5yHpwooWtxl-31" value="09.02.24" style="strokeColor=#DEEDFF" vertex="1" parent="1">
          <mxGeometry x="606.5000000000015" y="480.0000000000007" width="80.00000000000028" height="20" as="geometry" />
        </mxCell>
        <mxCell id="TQK9tkGC_5yHpwooWtxl-32" value="6" style="strokeColor=#EBF1FF;fillColor=#FFFFFF;" vertex="1" parent="1">
          <mxGeometry x="86.50000000000063" y="500.0000000000007" width="40" height="20" as="geometry" />
        </mxCell>
        <mxCell id="TQK9tkGC_5yHpwooWtxl-33" value="Automatisez les tests d&#39;interface web en crÃ©ant des scripts Selenium ou Robot Framework." style="align=left;strokeColor=#DEEDFF" vertex="1" parent="1">
          <mxGeometry x="126.50000000000063" y="500.0000000000007" width="319.9999999999994" height="20" as="geometry" />
        </mxCell>
        <mxCell id="TQK9tkGC_5yHpwooWtxl-34" value="2 days" style="strokeColor=#DEEDFF" vertex="1" parent="1">
          <mxGeometry x="446.5000000000024" y="500.0000000000007" width="80.00000000000028" height="20" as="geometry" />
        </mxCell>
        <mxCell id="TQK9tkGC_5yHpwooWtxl-35" value="10.02.24" style="strokeColor=#DEEDFF" vertex="1" parent="1">
          <mxGeometry x="526.5000000000027" y="500.0000000000007" width="80.00000000000028" height="20" as="geometry" />
        </mxCell>
        <mxCell id="TQK9tkGC_5yHpwooWtxl-36" value="11.02.24" style="strokeColor=#DEEDFF" vertex="1" parent="1">
          <mxGeometry x="606.5000000000022" y="500.0000000000009" width="80.00000000000028" height="20" as="geometry" />
        </mxCell>
        <mxCell id="TQK9tkGC_5yHpwooWtxl-37" value="7" style="strokeColor=#CCE5FF;fillColor=#FFFFFF;" vertex="1" parent="1">
          <mxGeometry x="86.50000000000064" y="520.0000000000006" width="40" height="20" as="geometry" />
        </mxCell>
        <mxCell id="TQK9tkGC_5yHpwooWtxl-38" value="RÃ©sultats des tests d&#39;interface utilisateur" style="align=left;strokeColor=#DEEDFF" vertex="1" parent="1">
          <mxGeometry x="126.50000000000064" y="520.0000000000006" width="319.9999999999994" height="20" as="geometry" />
        </mxCell>
        <mxCell id="TQK9tkGC_5yHpwooWtxl-39" value="0,5 day" style="strokeColor=#DEEDFF" vertex="1" parent="1">
          <mxGeometry x="446.5000000000024" y="520.0000000000006" width="80.00000000000028" height="20" as="geometry" />
        </mxCell>
        <mxCell id="TQK9tkGC_5yHpwooWtxl-40" value="12.02.24" style="strokeColor=#DEEDFF" vertex="1" parent="1">
          <mxGeometry x="526.5000000000027" y="520.0000000000006" width="80.00000000000028" height="20" as="geometry" />
        </mxCell>
        <mxCell id="TQK9tkGC_5yHpwooWtxl-41" value="12.02.24" style="strokeColor=#DEEDFF" vertex="1" parent="1">
          <mxGeometry x="606.5000000000022" y="520.0000000000008" width="80.00000000000028" height="20" as="geometry" />
        </mxCell>
        <mxCell id="TQK9tkGC_5yHpwooWtxl-42" value="" style="strokeColor=#DEEDFF;fillColor=#CCE5FF" vertex="1" parent="1">
          <mxGeometry x="86.50000000000037" y="540.000000000001" width="40" height="20" as="geometry" />
        </mxCell>
        <mxCell id="TQK9tkGC_5yHpwooWtxl-43" value="PrÃ©paration des rÃ©sultats et de la prÃ©sentation" style="align=left;strokeColor=#DEEDFF;fillColor=#CCE5FF" vertex="1" parent="1">
          <mxGeometry x="126.50000000000037" y="540.000000000001" width="319.99999999999966" height="20.00000000000003" as="geometry" />
        </mxCell>
        <mxCell id="TQK9tkGC_5yHpwooWtxl-44" value="2 days" style="strokeColor=#DEEDFF;fillColor=#CCE5FF" vertex="1" parent="1">
          <mxGeometry x="446.5000000000021" y="540.0000000000009" width="80.00000000000028" height="20" as="geometry" />
        </mxCell>
        <mxCell id="TQK9tkGC_5yHpwooWtxl-45" value="12.02.24" style="strokeColor=#DEEDFF;fillColor=#CCE5FF" vertex="1" parent="1">
          <mxGeometry x="526.5000000000025" y="540.0000000000009" width="80.00000000000028" height="20" as="geometry" />
        </mxCell>
        <mxCell id="TQK9tkGC_5yHpwooWtxl-46" value="12.02.24" style="strokeColor=#DEEDFF;fillColor=#CCE5FF" vertex="1" parent="1">
          <mxGeometry x="606.5000000000018" y="540.0000000000013" width="80.00000000000028" height="20" as="geometry" />
        </mxCell>
        <mxCell id="TQK9tkGC_5yHpwooWtxl-47" value="8" style="strokeColor=#DEEDFF" vertex="1" parent="1">
          <mxGeometry x="86.50000000000028" y="560.000000000001" width="40" height="20" as="geometry" />
        </mxCell>
        <mxCell id="TQK9tkGC_5yHpwooWtxl-48" value="Introduction au projet" style="align=left;strokeColor=#DEEDFF" vertex="1" parent="1">
          <mxGeometry x="126.50000000000028" y="560.000000000001" width="319.9999999999997" height="20" as="geometry" />
        </mxCell>
        <mxCell id="TQK9tkGC_5yHpwooWtxl-49" value="0,5 days" style="strokeColor=#DEEDFF" vertex="1" parent="1">
          <mxGeometry x="446.50000000000205" y="560.0000000000009" width="80.00000000000028" height="20" as="geometry" />
        </mxCell>
        <mxCell id="TQK9tkGC_5yHpwooWtxl-50" value="12.02.24" style="strokeColor=#DEEDFF" vertex="1" parent="1">
          <mxGeometry x="526.5000000000023" y="560.0000000000009" width="80.00000000000028" height="20" as="geometry" />
        </mxCell>
        <mxCell id="TQK9tkGC_5yHpwooWtxl-51" value="12.02.24" style="strokeColor=#DEEDFF" vertex="1" parent="1">
          <mxGeometry x="606.5000000000018" y="560.0000000000013" width="80.00000000000028" height="20" as="geometry" />
        </mxCell>
        <mxCell id="TQK9tkGC_5yHpwooWtxl-52" value="9" style="strokeColor=#DEEDFF" vertex="1" parent="1">
          <mxGeometry x="86.50000000000027" y="580.0000000000013" width="40" height="20" as="geometry" />
        </mxCell>
        <mxCell id="TQK9tkGC_5yHpwooWtxl-53" value="PrÃ©sentation de l&#39;application" style="align=left;strokeColor=#DEEDFF" vertex="1" parent="1">
          <mxGeometry x="126.50000000000027" y="580.0000000000013" width="319.9999999999997" height="20" as="geometry" />
        </mxCell>
        <mxCell id="TQK9tkGC_5yHpwooWtxl-54" value="0,5 days" style="strokeColor=#DEEDFF" vertex="1" parent="1">
          <mxGeometry x="446.50000000000205" y="580.0000000000011" width="80.00000000000028" height="20" as="geometry" />
        </mxCell>
        <mxCell id="TQK9tkGC_5yHpwooWtxl-55" value="12.02.24" style="strokeColor=#DEEDFF" vertex="1" parent="1">
          <mxGeometry x="526.5000000000023" y="580.0000000000011" width="80.00000000000028" height="20" as="geometry" />
        </mxCell>
        <mxCell id="TQK9tkGC_5yHpwooWtxl-56" value="12.02.24" style="strokeColor=#DEEDFF" vertex="1" parent="1">
          <mxGeometry x="606.5000000000018" y="580.0000000000015" width="80.00000000000028" height="20" as="geometry" />
        </mxCell>
        <mxCell id="TQK9tkGC_5yHpwooWtxl-57" value="10" style="strokeColor=#DEEDFF" vertex="1" parent="1">
          <mxGeometry x="86.49999999999997" y="600.0000000000016" width="40" height="20" as="geometry" />
        </mxCell>
        <mxCell id="TQK9tkGC_5yHpwooWtxl-58" value="PrÃ©sentation de l&#39;Ã©quipe" style="align=left;strokeColor=#DEEDFF" vertex="1" parent="1">
          <mxGeometry x="126.49999999999997" y="600.0000000000016" width="320" height="20" as="geometry" />
        </mxCell>
        <mxCell id="TQK9tkGC_5yHpwooWtxl-59" value="0,1 days" style="strokeColor=#DEEDFF" vertex="1" parent="1">
          <mxGeometry x="446.5000000000017" y="600.0000000000015" width="80.00000000000028" height="20" as="geometry" />
        </mxCell>
        <mxCell id="TQK9tkGC_5yHpwooWtxl-60" value="12.02.24" style="strokeColor=#DEEDFF" vertex="1" parent="1">
          <mxGeometry x="526.500000000002" y="600.0000000000015" width="80.00000000000028" height="20" as="geometry" />
        </mxCell>
        <mxCell id="TQK9tkGC_5yHpwooWtxl-61" value="12.02.24" style="strokeColor=#DEEDFF" vertex="1" parent="1">
          <mxGeometry x="606.5000000000015" y="600.0000000000018" width="80.00000000000028" height="20" as="geometry" />
        </mxCell>
        <mxCell id="TQK9tkGC_5yHpwooWtxl-62" value="11" style="strokeColor=#DEEDFF" vertex="1" parent="1">
          <mxGeometry x="86.49999999999999" y="620.0000000000014" width="40" height="20" as="geometry" />
        </mxCell>
        <mxCell id="TQK9tkGC_5yHpwooWtxl-63" value="ConclusionÂ  &amp; Perspectives" style="align=left;strokeColor=#DEEDFF" vertex="1" parent="1">
          <mxGeometry x="126.49999999999999" y="620.0000000000014" width="320" height="20" as="geometry" />
        </mxCell>
        <mxCell id="TQK9tkGC_5yHpwooWtxl-64" value="0,5 days" style="strokeColor=#DEEDFF" vertex="1" parent="1">
          <mxGeometry x="446.5000000000017" y="620.0000000000014" width="80.00000000000028" height="20" as="geometry" />
        </mxCell>
        <mxCell id="TQK9tkGC_5yHpwooWtxl-65" value="12.02.24" style="strokeColor=#DEEDFF" vertex="1" parent="1">
          <mxGeometry x="526.500000000002" y="620.0000000000014" width="80.00000000000028" height="20" as="geometry" />
        </mxCell>
        <mxCell id="TQK9tkGC_5yHpwooWtxl-66" value="13.02.24" style="strokeColor=#DEEDFF" vertex="1" parent="1">
          <mxGeometry x="606.5000000000015" y="620.0000000000016" width="80.00000000000028" height="20" as="geometry" />
        </mxCell>
        <mxCell id="TQK9tkGC_5yHpwooWtxl-132" value="" style="strokeColor=#DEEDFF" vertex="1" parent="1">
          <mxGeometry x="706.5" y="380" width="20" height="260" as="geometry" />
        </mxCell>
        <mxCell id="TQK9tkGC_5yHpwooWtxl-133" value="" style="strokeColor=#DEEDFF" vertex="1" parent="1">
          <mxGeometry x="726.5" y="380" width="20" height="260" as="geometry" />
        </mxCell>
        <mxCell id="TQK9tkGC_5yHpwooWtxl-134" value="" style="strokeColor=#DEEDFF" vertex="1" parent="1">
          <mxGeometry x="746.5" y="380" width="20" height="260" as="geometry" />
        </mxCell>
        <mxCell id="TQK9tkGC_5yHpwooWtxl-135" value="" style="strokeColor=#DEEDFF" vertex="1" parent="1">
          <mxGeometry x="766.5" y="380" width="20" height="260" as="geometry" />
        </mxCell>
        <mxCell id="TQK9tkGC_5yHpwooWtxl-136" value="" style="strokeColor=#DEEDFF;fillColor=#EBF1FF;" vertex="1" parent="1">
          <mxGeometry x="786.5" y="380" width="20" height="260" as="geometry" />
        </mxCell>
        <mxCell id="TQK9tkGC_5yHpwooWtxl-137" value="" style="strokeColor=#DEEDFF;fillColor=#EBF1FF;" vertex="1" parent="1">
          <mxGeometry x="806.5" y="380" width="20" height="260" as="geometry" />
        </mxCell>
        <mxCell id="TQK9tkGC_5yHpwooWtxl-138" value="" style="strokeColor=#DEEDFF" vertex="1" parent="1">
          <mxGeometry x="826.5" y="380" width="20" height="260" as="geometry" />
        </mxCell>
        <mxCell id="TQK9tkGC_5yHpwooWtxl-139" value="" style="strokeColor=#DEEDFF" vertex="1" parent="1">
          <mxGeometry x="846.5" y="380" width="20" height="260" as="geometry" />
        </mxCell>
        <mxCell id="TQK9tkGC_5yHpwooWtxl-140" value="" style="strokeColor=#DEEDFF" vertex="1" parent="1">
          <mxGeometry x="866.5" y="380" width="20" height="260" as="geometry" />
        </mxCell>
        <mxCell id="TQK9tkGC_5yHpwooWtxl-141" value="" style="strokeColor=#DEEDFF" vertex="1" parent="1">
          <mxGeometry x="886.5" y="380" width="20" height="260" as="geometry" />
        </mxCell>
        <mxCell id="TQK9tkGC_5yHpwooWtxl-142" value="" style="strokeColor=#DEEDFF" vertex="1" parent="1">
          <mxGeometry x="906.5" y="380" width="20" height="260" as="geometry" />
        </mxCell>
        <mxCell id="TQK9tkGC_5yHpwooWtxl-143" value="" style="strokeColor=#DEEDFF;fillColor=#EBF1FF;" vertex="1" parent="1">
          <mxGeometry x="926.5" y="380" width="20" height="260" as="geometry" />
        </mxCell>
        <mxCell id="TQK9tkGC_5yHpwooWtxl-144" value="" style="strokeColor=#DEEDFF;fillColor=#EBF1FF;" vertex="1" parent="1">
          <mxGeometry x="946.5" y="380" width="20" height="260" as="geometry" />
        </mxCell>
        <mxCell id="TQK9tkGC_5yHpwooWtxl-145" value="" style="strokeColor=#DEEDFF" vertex="1" parent="1">
          <mxGeometry x="966.5" y="380" width="20" height="260" as="geometry" />
        </mxCell>
        <mxCell id="TQK9tkGC_5yHpwooWtxl-146" value="" style="strokeColor=#DEEDFF" vertex="1" parent="1">
          <mxGeometry x="986.5" y="380" width="20" height="260" as="geometry" />
        </mxCell>
        <mxCell id="TQK9tkGC_5yHpwooWtxl-147" value="" style="strokeColor=#DEEDFF" vertex="1" parent="1">
          <mxGeometry x="1006.5" y="380" width="20" height="260" as="geometry" />
        </mxCell>
        <mxCell id="TQK9tkGC_5yHpwooWtxl-148" value="" style="strokeColor=#DEEDFF" vertex="1" parent="1">
          <mxGeometry x="1026.5" y="380" width="20" height="260" as="geometry" />
        </mxCell>
        <mxCell id="TQK9tkGC_5yHpwooWtxl-149" value="" style="strokeColor=#DEEDFF" vertex="1" parent="1">
          <mxGeometry x="1046.5" y="380" width="20" height="260" as="geometry" />
        </mxCell>
        <mxCell id="TQK9tkGC_5yHpwooWtxl-150" value="" style="strokeColor=#DEEDFF;fillColor=#EBF1FF;" vertex="1" parent="1">
          <mxGeometry x="1066.5" y="380" width="20" height="260" as="geometry" />
        </mxCell>
        <mxCell id="TQK9tkGC_5yHpwooWtxl-151" value="" style="strokeColor=#DEEDFF;fillColor=#EBF1FF;" vertex="1" parent="1">
          <mxGeometry x="1086.5" y="380" width="20" height="260" as="geometry" />
        </mxCell>
        <mxCell id="TQK9tkGC_5yHpwooWtxl-152" value="" style="strokeColor=#DEEDFF" vertex="1" parent="1">
          <mxGeometry x="1106.5" y="380" width="20" height="260" as="geometry" />
        </mxCell>
        <mxCell id="TQK9tkGC_5yHpwooWtxl-153" value="" style="strokeColor=#DEEDFF" vertex="1" parent="1">
          <mxGeometry x="1126.5" y="380" width="20" height="260" as="geometry" />
        </mxCell>
        <mxCell id="TQK9tkGC_5yHpwooWtxl-154" value="" style="strokeColor=#DEEDFF" vertex="1" parent="1">
          <mxGeometry x="1146.5" y="380" width="20" height="260" as="geometry" />
        </mxCell>
        <mxCell id="TQK9tkGC_5yHpwooWtxl-155" value="" style="strokeColor=#DEEDFF" vertex="1" parent="1">
          <mxGeometry x="1166.5" y="380" width="20" height="260" as="geometry" />
        </mxCell>
        <mxCell id="TQK9tkGC_5yHpwooWtxl-156" value="" style="strokeColor=#DEEDFF" vertex="1" parent="1">
          <mxGeometry x="1186.5" y="380" width="20" height="260" as="geometry" />
        </mxCell>
        <mxCell id="TQK9tkGC_5yHpwooWtxl-157" value="" style="strokeColor=#DEEDFF;fillColor=#EBF1FF;" vertex="1" parent="1">
          <mxGeometry x="1206.5" y="380" width="20" height="260" as="geometry" />
        </mxCell>
        <mxCell id="TQK9tkGC_5yHpwooWtxl-158" value="" style="strokeColor=#DEEDFF;fillColor=#EBF1FF;" vertex="1" parent="1">
          <mxGeometry x="1226.5" y="380" width="20" height="260" as="geometry" />
        </mxCell>
        <mxCell id="TQK9tkGC_5yHpwooWtxl-159" value="" style="strokeColor=#DEEDFF" vertex="1" parent="1">
          <mxGeometry x="1246.5" y="380" width="20" height="260" as="geometry" />
        </mxCell>
        <mxCell id="TQK9tkGC_5yHpwooWtxl-160" value="" style="strokeColor=#DEEDFF" vertex="1" parent="1">
          <mxGeometry x="1266.5" y="380" width="20" height="260" as="geometry" />
        </mxCell>
        <mxCell id="TQK9tkGC_5yHpwooWtxl-161" value="" style="strokeColor=#DEEDFF" vertex="1" parent="1">
          <mxGeometry x="1286.5" y="380" width="20" height="260" as="geometry" />
        </mxCell>
        <mxCell id="TQK9tkGC_5yHpwooWtxl-162" value="" style="strokeColor=#DEEDFF" vertex="1" parent="1">
          <mxGeometry x="1306.5" y="380" width="20" height="260" as="geometry" />
        </mxCell>
        <mxCell id="TQK9tkGC_5yHpwooWtxl-163" value="" style="strokeColor=#DEEDFF" vertex="1" parent="1">
          <mxGeometry x="1326.5" y="380" width="20" height="260" as="geometry" />
        </mxCell>
        <mxCell id="TQK9tkGC_5yHpwooWtxl-164" value="" style="strokeColor=#DEEDFF;fillColor=#EBF1FF;" vertex="1" parent="1">
          <mxGeometry x="1346.5" y="380" width="20" height="260" as="geometry" />
        </mxCell>
        <mxCell id="TQK9tkGC_5yHpwooWtxl-165" value="" style="strokeColor=#DEEDFF;fillColor=#EBF1FF;" vertex="1" parent="1">
          <mxGeometry x="1366.5" y="380" width="20" height="260" as="geometry" />
        </mxCell>
        <mxCell id="TQK9tkGC_5yHpwooWtxl-166" value="" style="strokeColor=#DEEDFF" vertex="1" parent="1">
          <mxGeometry x="1386.5" y="380" width="20" height="260" as="geometry" />
        </mxCell>
        <mxCell id="TQK9tkGC_5yHpwooWtxl-167" value="" style="strokeColor=#DEEDFF" vertex="1" parent="1">
          <mxGeometry x="1406.5" y="380" width="20" height="260" as="geometry" />
        </mxCell>
        <mxCell id="TQK9tkGC_5yHpwooWtxl-168" value="" style="strokeColor=#DEEDFF" vertex="1" parent="1">
          <mxGeometry x="1426.5" y="380" width="20" height="260" as="geometry" />
        </mxCell>
        <mxCell id="TQK9tkGC_5yHpwooWtxl-169" value="" style="strokeColor=#DEEDFF" vertex="1" parent="1">
          <mxGeometry x="1446.5" y="380" width="20" height="260" as="geometry" />
        </mxCell>
        <mxCell id="TQK9tkGC_5yHpwooWtxl-170" value="" style="strokeColor=#DEEDFF" vertex="1" parent="1">
          <mxGeometry x="1466.5" y="380" width="20" height="260" as="geometry" />
        </mxCell>
        <mxCell id="TQK9tkGC_5yHpwooWtxl-171" value="" style="strokeColor=#DEEDFF;fillColor=#EBF1FF;" vertex="1" parent="1">
          <mxGeometry x="1486.5" y="380" width="20" height="260" as="geometry" />
        </mxCell>
        <mxCell id="TQK9tkGC_5yHpwooWtxl-172" value="" style="strokeColor=#DEEDFF;fillColor=#EBF1FF;" vertex="1" parent="1">
          <mxGeometry x="1506.5" y="380" width="20" height="260" as="geometry" />
        </mxCell>
        <mxCell id="TQK9tkGC_5yHpwooWtxl-174" value="" style="strokeColor=#DEEDFF" vertex="1" parent="1">
          <mxGeometry x="1546.5" y="380" width="20" height="260" as="geometry" />
        </mxCell>
        <mxCell id="TQK9tkGC_5yHpwooWtxl-175" value="" style="strokeColor=#DEEDFF" vertex="1" parent="1">
          <mxGeometry x="1566.5" y="380" width="20" height="260" as="geometry" />
        </mxCell>
        <mxCell id="TQK9tkGC_5yHpwooWtxl-176" value="" style="strokeColor=#DEEDFF" vertex="1" parent="1">
          <mxGeometry x="1586.5" y="380" width="20" height="260" as="geometry" />
        </mxCell>
        <mxCell id="TQK9tkGC_5yHpwooWtxl-177" value="" style="strokeColor=#DEEDFF" vertex="1" parent="1">
          <mxGeometry x="1606.5" y="380" width="20" height="260" as="geometry" />
        </mxCell>
        <mxCell id="TQK9tkGC_5yHpwooWtxl-178" value="" style="strokeColor=#DEEDFF;fillColor=#EBF1FF;" vertex="1" parent="1">
          <mxGeometry x="1626.5" y="380" width="20" height="260" as="geometry" />
        </mxCell>
        <mxCell id="TQK9tkGC_5yHpwooWtxl-179" value="" style="strokeColor=#DEEDFF;fillColor=#EBF1FF;" vertex="1" parent="1">
          <mxGeometry x="1646.5" y="380" width="20" height="260" as="geometry" />
        </mxCell>
        <mxCell id="TQK9tkGC_5yHpwooWtxl-180" value="Task Name" style="fillColor=#23445D;strokeColor=#FFFFFF;strokeWidth=2;fontColor=#FFFFFF;fontStyle=1" vertex="1" parent="1">
          <mxGeometry x="126.5" y="340" width="320" height="40" as="geometry" />
        </mxCell>
        <mxCell id="TQK9tkGC_5yHpwooWtxl-181" value="" style="fillColor=#23445D;strokeColor=#FFFFFF;strokeWidth=2;fontColor=#FFFFFF;fontStyle=1" vertex="1" parent="1">
          <mxGeometry x="86.5" y="340" width="40" height="40" as="geometry" />
        </mxCell>
        <mxCell id="TQK9tkGC_5yHpwooWtxl-183" value="08 February" style="fillColor=#23445D;strokeColor=#FFFFFF;strokeWidth=2;fontColor=#FFFFFF;fontStyle=1" vertex="1" parent="1">
          <mxGeometry x="686.5000000000018" y="340.0000000000001" width="140" height="20" as="geometry" />
        </mxCell>
        <mxCell id="TQK9tkGC_5yHpwooWtxl-184" value="9" style="fillColor=#23445D;strokeColor=#FFFFFF;strokeWidth=2;fontColor=#FFFFFF;fontStyle=1" vertex="1" parent="1">
          <mxGeometry x="686.5000000000018" y="360.0000000000001" width="20" height="20" as="geometry" />
        </mxCell>
        <mxCell id="TQK9tkGC_5yHpwooWtxl-185" value="11" style="fillColor=#23445D;strokeColor=#FFFFFF;strokeWidth=2;fontColor=#FFFFFF;fontStyle=1" vertex="1" parent="1">
          <mxGeometry x="706.5000000000018" y="360.0000000000001" width="20" height="20" as="geometry" />
        </mxCell>
        <mxCell id="TQK9tkGC_5yHpwooWtxl-186" value="13" style="fillColor=#23445D;strokeColor=#FFFFFF;strokeWidth=2;fontColor=#FFFFFF;fontStyle=1" vertex="1" parent="1">
          <mxGeometry x="726.5000000000018" y="360.0000000000001" width="20" height="20" as="geometry" />
        </mxCell>
        <mxCell id="TQK9tkGC_5yHpwooWtxl-187" value="15" style="fillColor=#23445D;strokeColor=#FFFFFF;strokeWidth=2;fontColor=#FFFFFF;fontStyle=1" vertex="1" parent="1">
          <mxGeometry x="746.5000000000018" y="360.0000000000001" width="20" height="20" as="geometry" />
        </mxCell>
        <mxCell id="TQK9tkGC_5yHpwooWtxl-188" value="17" style="fillColor=#23445D;strokeColor=#FFFFFF;strokeWidth=2;fontColor=#FFFFFF;fontStyle=1" vertex="1" parent="1">
          <mxGeometry x="766.5000000000016" y="360.0000000000001" width="20" height="20" as="geometry" />
        </mxCell>
        <mxCell id="TQK9tkGC_5yHpwooWtxl-189" value="19" style="fillColor=#23445D;strokeColor=#FFFFFF;strokeWidth=2;fontColor=#FFFFFF;fontStyle=1" vertex="1" parent="1">
          <mxGeometry x="786.5000000000016" y="360.0000000000001" width="20" height="20" as="geometry" />
        </mxCell>
        <mxCell id="TQK9tkGC_5yHpwooWtxl-190" value="21" style="fillColor=#23445D;strokeColor=#FFFFFF;strokeWidth=2;fontColor=#FFFFFF;fontStyle=1" vertex="1" parent="1">
          <mxGeometry x="806.5000000000016" y="360.0000000000001" width="20" height="20" as="geometry" />
        </mxCell>
        <mxCell id="TQK9tkGC_5yHpwooWtxl-191" value="Duration" style="fillColor=#23445D;strokeColor=#FFFFFF;strokeWidth=2;fontColor=#FFFFFF;fontStyle=1" vertex="1" parent="1">
          <mxGeometry x="446.50000000000176" y="340.00000000000006" width="80.00000000000006" height="40.00000000000001" as="geometry" />
        </mxCell>
        <mxCell id="TQK9tkGC_5yHpwooWtxl-192" value="Start" style="fillColor=#23445D;strokeColor=#FFFFFF;strokeWidth=2;fontColor=#FFFFFF;fontStyle=1" vertex="1" parent="1">
          <mxGeometry x="526.5000000000018" y="340.00000000000006" width="80.00000000000006" height="40.00000000000001" as="geometry" />
        </mxCell>
        <mxCell id="TQK9tkGC_5yHpwooWtxl-193" value="ETA" style="fillColor=#23445D;strokeColor=#FFFFFF;strokeWidth=2;fontColor=#FFFFFF;fontStyle=1" vertex="1" parent="1">
          <mxGeometry x="606.5000000000019" y="340.0000000000001" width="80.00000000000006" height="40.00000000000001" as="geometry" />
        </mxCell>
        <mxCell id="TQK9tkGC_5yHpwooWtxl-194" value="09 February" style="fillColor=#23445D;strokeColor=#FFFFFF;strokeWidth=2;fontColor=#FFFFFF;fontStyle=1" vertex="1" parent="1">
          <mxGeometry x="826.5000000000018" y="340.0000000000001" width="140" height="20" as="geometry" />
        </mxCell>
        <mxCell id="TQK9tkGC_5yHpwooWtxl-195" value="10 February" style="fillColor=#f8cecc;strokeColor=#FFFFFF;strokeWidth=2;fontStyle=1" vertex="1" parent="1">
          <mxGeometry x="966.5000000000018" y="340.00000000000006" width="140" height="20" as="geometry" />
        </mxCell>
        <mxCell id="TQK9tkGC_5yHpwooWtxl-196" value="11 February" style="fillColor=#f8cecc;strokeColor=#FFFFFF;strokeWidth=2;fontStyle=1" vertex="1" parent="1">
          <mxGeometry x="1106.5000000000018" y="340.00000000000006" width="140" height="20" as="geometry" />
        </mxCell>
        <mxCell id="TQK9tkGC_5yHpwooWtxl-197" value="12 February" style="fillColor=#23445D;strokeColor=#FFFFFF;strokeWidth=2;fontColor=#FFFFFF;fontStyle=1" vertex="1" parent="1">
          <mxGeometry x="1246.5000000000018" y="340.00000000000006" width="140" height="20" as="geometry" />
        </mxCell>
        <mxCell id="TQK9tkGC_5yHpwooWtxl-198" value="13 February" style="fillColor=#23445D;strokeColor=#FFFFFF;strokeWidth=2;fontColor=#FFFFFF;fontStyle=1" vertex="1" parent="1">
          <mxGeometry x="1386.5000000000018" y="340" width="140" height="20" as="geometry" />
        </mxCell>
        <mxCell id="TQK9tkGC_5yHpwooWtxl-199" value="14 February" style="fillColor=#23445D;strokeColor=#FFFFFF;strokeWidth=2;fontColor=#FFFFFF;fontStyle=1" vertex="1" parent="1">
          <mxGeometry x="1526.5000000000018" y="340.0000000000001" width="140" height="20" as="geometry" />
        </mxCell>
        <mxCell id="TQK9tkGC_5yHpwooWtxl-200" value="" style="shape=mxgraph.flowchart.process;fillColor=#3E75E6;strokeColor=#EA6B66;strokeWidth=1;opacity=50" vertex="1" parent="1">
          <mxGeometry x="686.5" y="400" width="173.5" height="20" as="geometry" />
        </mxCell>
        <mxCell id="TQK9tkGC_5yHpwooWtxl-202" value="" style="shape=mxgraph.flowchart.process;fillColor=#3E75E6;strokeColor=#EA6B66;strokeWidth=1;opacity=50" vertex="1" parent="1">
          <mxGeometry x="760" y="420" width="170" height="20" as="geometry" />
        </mxCell>
        <mxCell id="TQK9tkGC_5yHpwooWtxl-203" value="" style="shape=mxgraph.flowchart.process;fillColor=#3E75E6;strokeColor=#EA6B66;strokeWidth=1;opacity=50" vertex="1" parent="1">
          <mxGeometry x="746.5" y="440" width="43.5" height="20" as="geometry" />
        </mxCell>
        <mxCell id="TQK9tkGC_5yHpwooWtxl-204" value="" style="shape=mxgraph.flowchart.process;fillColor=#3E75E6;strokeColor=#EA6B66;strokeWidth=1;opacity=50" vertex="1" parent="1">
          <mxGeometry x="731.5" y="460" width="168.5" height="20" as="geometry" />
        </mxCell>
        <mxCell id="TQK9tkGC_5yHpwooWtxl-206" value="" style="shape=mxgraph.flowchart.process;fillColor=#3E75E6;strokeColor=#EA6B66;strokeWidth=1;opacity=50" vertex="1" parent="1">
          <mxGeometry x="1310" y="520" width="36.5" height="20" as="geometry" />
        </mxCell>
        <mxCell id="TQK9tkGC_5yHpwooWtxl-209" value="" style="shape=mxgraph.arrows.bent_right_arrow;fillColor=#284D96;strokeColor=none;strokeWidth=2;direction=south" vertex="1" parent="1">
          <mxGeometry x="1310.5" y="510" width="10" height="10" as="geometry" />
        </mxCell>
        <mxCell id="TQK9tkGC_5yHpwooWtxl-210" value="" style="shape=mxgraph.flowchart.process;fillColor=#3E75E6;strokeColor=#EA6B66;strokeWidth=1;opacity=50" vertex="1" parent="1">
          <mxGeometry x="870" y="480" width="60" height="20" as="geometry" />
        </mxCell>
        <mxCell id="TQK9tkGC_5yHpwooWtxl-212" value="" style="shape=mxgraph.flowchart.process;fillColor=#3E75E6;strokeColor=#EA6B66;strokeWidth=1;opacity=50" vertex="1" parent="1">
          <mxGeometry x="1246.5" y="560" width="53.5" height="20" as="geometry" />
        </mxCell>
        <mxCell id="TQK9tkGC_5yHpwooWtxl-214" value="" style="shape=mxgraph.flowchart.process;fillColor=#3E75E6;strokeColor=#EA6B66;strokeWidth=1;opacity=50" vertex="1" parent="1">
          <mxGeometry x="1298.75" y="580" width="41.25" height="20" as="geometry" />
        </mxCell>
        <mxCell id="TQK9tkGC_5yHpwooWtxl-215" value="" style="shape=mxgraph.flowchart.process;fillColor=#3E75E6;strokeColor=#EA6B66;strokeWidth=1;opacity=50" vertex="1" parent="1">
          <mxGeometry x="1340" y="600" width="66.5" height="20" as="geometry" />
        </mxCell>
        <mxCell id="TQK9tkGC_5yHpwooWtxl-216" value="" style="shape=mxgraph.flowchart.process;fillColor=#3E75E6;strokeColor=#EA6B66;strokeWidth=1;opacity=50" vertex="1" parent="1">
          <mxGeometry x="1406.5" y="620" width="43.5" height="20" as="geometry" />
        </mxCell>
        <mxCell id="TQK9tkGC_5yHpwooWtxl-236" value="9" style="fillColor=#23445D;strokeColor=#FFFFFF;strokeWidth=2;fontColor=#FFFFFF;fontStyle=1" vertex="1" parent="1">
          <mxGeometry x="826.5000000000018" y="360.0000000000001" width="20" height="20" as="geometry" />
        </mxCell>
        <mxCell id="TQK9tkGC_5yHpwooWtxl-237" value="11" style="fillColor=#23445D;strokeColor=#FFFFFF;strokeWidth=2;fontColor=#FFFFFF;fontStyle=1" vertex="1" parent="1">
          <mxGeometry x="846.5000000000018" y="360.0000000000001" width="20" height="20" as="geometry" />
        </mxCell>
        <mxCell id="TQK9tkGC_5yHpwooWtxl-238" value="13" style="fillColor=#23445D;strokeColor=#FFFFFF;strokeWidth=2;fontColor=#FFFFFF;fontStyle=1" vertex="1" parent="1">
          <mxGeometry x="866.5000000000018" y="360.0000000000001" width="20" height="20" as="geometry" />
        </mxCell>
        <mxCell id="TQK9tkGC_5yHpwooWtxl-239" value="15" style="fillColor=#23445D;strokeColor=#FFFFFF;strokeWidth=2;fontColor=#FFFFFF;fontStyle=1" vertex="1" parent="1">
          <mxGeometry x="886.5000000000018" y="360.0000000000001" width="20" height="20" as="geometry" />
        </mxCell>
        <mxCell id="TQK9tkGC_5yHpwooWtxl-240" value="17" style="fillColor=#23445D;strokeColor=#FFFFFF;strokeWidth=2;fontColor=#FFFFFF;fontStyle=1" vertex="1" parent="1">
          <mxGeometry x="906.5000000000016" y="360.0000000000001" width="20" height="20" as="geometry" />
        </mxCell>
        <mxCell id="TQK9tkGC_5yHpwooWtxl-241" value="19" style="fillColor=#23445D;strokeColor=#FFFFFF;strokeWidth=2;fontColor=#FFFFFF;fontStyle=1" vertex="1" parent="1">
          <mxGeometry x="926.5000000000016" y="360.0000000000001" width="20" height="20" as="geometry" />
        </mxCell>
        <mxCell id="TQK9tkGC_5yHpwooWtxl-242" value="21" style="fillColor=#23445D;strokeColor=#FFFFFF;strokeWidth=2;fontColor=#FFFFFF;fontStyle=1" vertex="1" parent="1">
          <mxGeometry x="946.5000000000016" y="360.0000000000001" width="20" height="20" as="geometry" />
        </mxCell>
        <mxCell id="TQK9tkGC_5yHpwooWtxl-243" value="9" style="fillColor=#f8cecc;strokeColor=#FFFFFF;strokeWidth=2;fontStyle=1" vertex="1" parent="1">
          <mxGeometry x="966.5000000000018" y="360.0000000000001" width="20" height="20" as="geometry" />
        </mxCell>
        <mxCell id="TQK9tkGC_5yHpwooWtxl-244" value="11" style="fillColor=#f8cecc;strokeColor=#FFFFFF;strokeWidth=2;fontStyle=1" vertex="1" parent="1">
          <mxGeometry x="986.5000000000018" y="360.0000000000001" width="20" height="20" as="geometry" />
        </mxCell>
        <mxCell id="TQK9tkGC_5yHpwooWtxl-245" value="13" style="fillColor=#f8cecc;strokeColor=#FFFFFF;strokeWidth=2;fontStyle=1" vertex="1" parent="1">
          <mxGeometry x="1006.5000000000018" y="360.0000000000001" width="20" height="20" as="geometry" />
        </mxCell>
        <mxCell id="TQK9tkGC_5yHpwooWtxl-246" value="15" style="fillColor=#f8cecc;strokeColor=#FFFFFF;strokeWidth=2;fontStyle=1" vertex="1" parent="1">
          <mxGeometry x="1026.5000000000018" y="360.0000000000001" width="20" height="20" as="geometry" />
        </mxCell>
        <mxCell id="TQK9tkGC_5yHpwooWtxl-247" value="17" style="fillColor=#f8cecc;strokeColor=#FFFFFF;strokeWidth=2;fontStyle=1" vertex="1" parent="1">
          <mxGeometry x="1046.5000000000016" y="360.0000000000001" width="20" height="20" as="geometry" />
        </mxCell>
        <mxCell id="TQK9tkGC_5yHpwooWtxl-248" value="19" style="fillColor=#f8cecc;strokeColor=#FFFFFF;strokeWidth=2;fontStyle=1" vertex="1" parent="1">
          <mxGeometry x="1066.5000000000016" y="360.0000000000001" width="20" height="20" as="geometry" />
        </mxCell>
        <mxCell id="TQK9tkGC_5yHpwooWtxl-249" value="21" style="fillColor=#f8cecc;strokeColor=#FFFFFF;strokeWidth=2;fontStyle=1" vertex="1" parent="1">
          <mxGeometry x="1086.5000000000016" y="360.0000000000001" width="20" height="20" as="geometry" />
        </mxCell>
        <mxCell id="TQK9tkGC_5yHpwooWtxl-250" value="9" style="fillColor=#f8cecc;strokeColor=#FFFFFF;strokeWidth=2;fontStyle=1" vertex="1" parent="1">
          <mxGeometry x="1106.5000000000018" y="360.0000000000001" width="20" height="20" as="geometry" />
        </mxCell>
        <mxCell id="TQK9tkGC_5yHpwooWtxl-251" value="11" style="fillColor=#f8cecc;strokeColor=#FFFFFF;strokeWidth=2;fontStyle=1" vertex="1" parent="1">
          <mxGeometry x="1126.5000000000018" y="360.0000000000001" width="20" height="20" as="geometry" />
        </mxCell>
        <mxCell id="TQK9tkGC_5yHpwooWtxl-252" value="13" style="fillColor=#f8cecc;strokeColor=#FFFFFF;strokeWidth=2;fontStyle=1" vertex="1" parent="1">
          <mxGeometry x="1146.5000000000018" y="360.0000000000001" width="20" height="20" as="geometry" />
        </mxCell>
        <mxCell id="TQK9tkGC_5yHpwooWtxl-253" value="15" style="fillColor=#f8cecc;strokeColor=#FFFFFF;strokeWidth=2;fontStyle=1" vertex="1" parent="1">
          <mxGeometry x="1166.5000000000018" y="360.0000000000001" width="20" height="20" as="geometry" />
        </mxCell>
        <mxCell id="TQK9tkGC_5yHpwooWtxl-254" value="17" style="fillColor=#f8cecc;strokeColor=#FFFFFF;strokeWidth=2;fontStyle=1" vertex="1" parent="1">
          <mxGeometry x="1186.5000000000016" y="360.0000000000001" width="20" height="20" as="geometry" />
        </mxCell>
        <mxCell id="TQK9tkGC_5yHpwooWtxl-255" value="19" style="fillColor=#f8cecc;strokeColor=#FFFFFF;strokeWidth=2;fontStyle=1" vertex="1" parent="1">
          <mxGeometry x="1206.5000000000016" y="360.0000000000001" width="20" height="20" as="geometry" />
        </mxCell>
        <mxCell id="TQK9tkGC_5yHpwooWtxl-256" value="21" style="fillColor=#f8cecc;strokeColor=#FFFFFF;strokeWidth=2;fontStyle=1" vertex="1" parent="1">
          <mxGeometry x="1226.5000000000016" y="360.0000000000001" width="20" height="20" as="geometry" />
        </mxCell>
        <mxCell id="TQK9tkGC_5yHpwooWtxl-257" value="9" style="fillColor=#23445D;strokeColor=#FFFFFF;strokeWidth=2;fontColor=#FFFFFF;fontStyle=1" vertex="1" parent="1">
          <mxGeometry x="1246.5000000000018" y="360.0000000000001" width="20" height="20" as="geometry" />
        </mxCell>
        <mxCell id="TQK9tkGC_5yHpwooWtxl-258" value="11" style="fillColor=#23445D;strokeColor=#FFFFFF;strokeWidth=2;fontColor=#FFFFFF;fontStyle=1" vertex="1" parent="1">
          <mxGeometry x="1266.5000000000018" y="360.0000000000001" width="20" height="20" as="geometry" />
        </mxCell>
        <mxCell id="TQK9tkGC_5yHpwooWtxl-259" value="13" style="fillColor=#23445D;strokeColor=#FFFFFF;strokeWidth=2;fontColor=#FFFFFF;fontStyle=1" vertex="1" parent="1">
          <mxGeometry x="1286.5000000000018" y="360.0000000000001" width="20" height="20" as="geometry" />
        </mxCell>
        <mxCell id="TQK9tkGC_5yHpwooWtxl-260" value="15" style="fillColor=#23445D;strokeColor=#FFFFFF;strokeWidth=2;fontColor=#FFFFFF;fontStyle=1" vertex="1" parent="1">
          <mxGeometry x="1306.5000000000018" y="360.0000000000001" width="20" height="20" as="geometry" />
        </mxCell>
        <mxCell id="TQK9tkGC_5yHpwooWtxl-261" value="17" style="fillColor=#23445D;strokeColor=#FFFFFF;strokeWidth=2;fontColor=#FFFFFF;fontStyle=1" vertex="1" parent="1">
          <mxGeometry x="1326.5000000000016" y="360.0000000000001" width="20" height="20" as="geometry" />
        </mxCell>
        <mxCell id="TQK9tkGC_5yHpwooWtxl-262" value="19" style="fillColor=#23445D;strokeColor=#FFFFFF;strokeWidth=2;fontColor=#FFFFFF;fontStyle=1" vertex="1" parent="1">
          <mxGeometry x="1346.5000000000016" y="360.0000000000001" width="20" height="20" as="geometry" />
        </mxCell>
        <mxCell id="TQK9tkGC_5yHpwooWtxl-263" value="21" style="fillColor=#23445D;strokeColor=#FFFFFF;strokeWidth=2;fontColor=#FFFFFF;fontStyle=1" vertex="1" parent="1">
          <mxGeometry x="1366.5000000000016" y="360.0000000000001" width="20" height="20" as="geometry" />
        </mxCell>
        <mxCell id="TQK9tkGC_5yHpwooWtxl-264" value="9" style="fillColor=#23445D;strokeColor=#FFFFFF;strokeWidth=2;fontColor=#FFFFFF;fontStyle=1" vertex="1" parent="1">
          <mxGeometry x="1526.5000000000018" y="360.0000000000001" width="20" height="20" as="geometry" />
        </mxCell>
        <mxCell id="TQK9tkGC_5yHpwooWtxl-265" value="11" style="fillColor=#23445D;strokeColor=#FFFFFF;strokeWidth=2;fontColor=#FFFFFF;fontStyle=1" vertex="1" parent="1">
          <mxGeometry x="1546.5000000000018" y="360.0000000000001" width="20" height="20" as="geometry" />
        </mxCell>
        <mxCell id="TQK9tkGC_5yHpwooWtxl-266" value="13" style="fillColor=#23445D;strokeColor=#FFFFFF;strokeWidth=2;fontColor=#FFFFFF;fontStyle=1" vertex="1" parent="1">
          <mxGeometry x="1566.5000000000018" y="360.0000000000001" width="20" height="20" as="geometry" />
        </mxCell>
        <mxCell id="TQK9tkGC_5yHpwooWtxl-267" value="15" style="fillColor=#23445D;strokeColor=#FFFFFF;strokeWidth=2;fontColor=#FFFFFF;fontStyle=1" vertex="1" parent="1">
          <mxGeometry x="1586.5000000000018" y="360.0000000000001" width="20" height="20" as="geometry" />
        </mxCell>
        <mxCell id="TQK9tkGC_5yHpwooWtxl-268" value="17" style="fillColor=#23445D;strokeColor=#FFFFFF;strokeWidth=2;fontColor=#FFFFFF;fontStyle=1" vertex="1" parent="1">
          <mxGeometry x="1606.5000000000016" y="360.0000000000001" width="20" height="20" as="geometry" />
        </mxCell>
        <mxCell id="TQK9tkGC_5yHpwooWtxl-269" value="19" style="fillColor=#23445D;strokeColor=#FFFFFF;strokeWidth=2;fontColor=#FFFFFF;fontStyle=1" vertex="1" parent="1">
          <mxGeometry x="1626.5000000000016" y="360.0000000000001" width="20" height="20" as="geometry" />
        </mxCell>
        <mxCell id="TQK9tkGC_5yHpwooWtxl-270" value="21" style="fillColor=#23445D;strokeColor=#FFFFFF;strokeWidth=2;fontColor=#FFFFFF;fontStyle=1" vertex="1" parent="1">
          <mxGeometry x="1646.5000000000016" y="360.0000000000001" width="20" height="20" as="geometry" />
        </mxCell>
        <mxCell id="TQK9tkGC_5yHpwooWtxl-271" value="9" style="fillColor=#23445D;strokeColor=#FFFFFF;strokeWidth=2;fontColor=#FFFFFF;fontStyle=1" vertex="1" parent="1">
          <mxGeometry x="1386.5000000000018" y="360.0000000000001" width="20" height="20" as="geometry" />
        </mxCell>
        <mxCell id="TQK9tkGC_5yHpwooWtxl-272" value="11" style="fillColor=#23445D;strokeColor=#FFFFFF;strokeWidth=2;fontColor=#FFFFFF;fontStyle=1" vertex="1" parent="1">
          <mxGeometry x="1406.5000000000018" y="360.0000000000001" width="20" height="20" as="geometry" />
        </mxCell>
        <mxCell id="TQK9tkGC_5yHpwooWtxl-273" value="13" style="fillColor=#23445D;strokeColor=#FFFFFF;strokeWidth=2;fontColor=#FFFFFF;fontStyle=1" vertex="1" parent="1">
          <mxGeometry x="1426.5000000000018" y="360.0000000000001" width="20" height="20" as="geometry" />
        </mxCell>
        <mxCell id="TQK9tkGC_5yHpwooWtxl-274" value="15" style="fillColor=#23445D;strokeColor=#FFFFFF;strokeWidth=2;fontColor=#FFFFFF;fontStyle=1" vertex="1" parent="1">
          <mxGeometry x="1446.5000000000018" y="360.0000000000001" width="20" height="20" as="geometry" />
        </mxCell>
        <mxCell id="TQK9tkGC_5yHpwooWtxl-275" value="17" style="fillColor=#23445D;strokeColor=#FFFFFF;strokeWidth=2;fontColor=#FFFFFF;fontStyle=1" vertex="1" parent="1">
          <mxGeometry x="1466.5000000000016" y="360.0000000000001" width="20" height="20" as="geometry" />
        </mxCell>
        <mxCell id="TQK9tkGC_5yHpwooWtxl-276" value="19" style="fillColor=#23445D;strokeColor=#FFFFFF;strokeWidth=2;fontColor=#FFFFFF;fontStyle=1" vertex="1" parent="1">
          <mxGeometry x="1486.5000000000016" y="360.0000000000001" width="20" height="20" as="geometry" />
        </mxCell>
        <mxCell id="TQK9tkGC_5yHpwooWtxl-277" value="21" style="fillColor=#23445D;strokeColor=#FFFFFF;strokeWidth=2;fontColor=#FFFFFF;fontStyle=1" vertex="1" parent="1">
          <mxGeometry x="1506.5000000000016" y="360.0000000000001" width="20" height="20" as="geometry" />
        </mxCell>
        <mxCell id="TQK9tkGC_5yHpwooWtxl-278" value="" style="shape=mxgraph.flowchart.process;fillColor=#284D96;strokeColor=#000000;strokeWidth=1;opacity=100" vertex="1" parent="1">
          <mxGeometry x="686.5" y="380" width="763.5" height="20" as="geometry" />
        </mxCell>
        <mxCell id="2ILfejrnsYW1jjp3p1lF-10" value="" style="strokeColor=#DEEDFF" vertex="1" parent="1">
          <mxGeometry x="1526.5" y="380" width="20" height="260" as="geometry" />
        </mxCell>
        <mxCell id="2ILfejrnsYW1jjp3p1lF-14" value="" style="endArrow=none;html=1;rounded=0;entryX=0.5;entryY=0;entryDx=0;entryDy=0;exitX=0.5;exitY=1;exitDx=0;exitDy=0;strokeColor=#FF0000;strokeWidth=3;dashed=1;" edge="1" parent="1" source="TQK9tkGC_5yHpwooWtxl-169" target="TQK9tkGC_5yHpwooWtxl-169">
          <mxGeometry width="50" height="50" relative="1" as="geometry">
            <mxPoint x="1430" y="640" as="sourcePoint" />
            <mxPoint x="1480" y="590" as="targetPoint" />
          </mxGeometry>
        </mxCell>
        <mxCell id="2ILfejrnsYW1jjp3p1lF-15" value="" style="shape=mxgraph.flowchart.process;fillColor=#284D96;strokeColor=#000000;strokeWidth=1;opacity=100" vertex="1" parent="1">
          <mxGeometry x="1247" y="540" width="203" height="20" as="geometry" />
        </mxCell>
        <mxCell id="NYk3plWHJrPwuqamWchr-1" value="" style="shape=mxgraph.flowchart.process;fillColor=#3E75E6;strokeColor=#EA6B66;strokeWidth=1;opacity=50" vertex="1" parent="1">
          <mxGeometry x="970" y="500" width="340" height="20" as="geometry" />
        </mxCell>
      </root>
    </mxGraphModel>
  </diagram>
</mxfile>
